<?xml version="1.0" encoding="UTF-8" standalone="no"?>
<svg
   xmlns:dc="http://purl.org/dc/elements/1.1/"
   xmlns:cc="http://creativecommons.org/ns#"
   xmlns:rdf="http://www.w3.org/1999/02/22-rdf-syntax-ns#"
   xmlns:svg="http://www.w3.org/2000/svg"
   xmlns="http://www.w3.org/2000/svg"
   version="1.1"
   id="svg5106"
   viewBox="0 0 214.20459 299.92792"
   height="84.646324mm"
   width="60.453297mm">
  <defs
     id="defs5108" />
  <metadata
     id="metadata5111">
    <rdf:RDF>
      <cc:Work
         rdf:about="">
        <dc:format>image/svg+xml</dc:format>
        <dc:type
           rdf:resource="http://purl.org/dc/dcmitype/StillImage" />
        <dc:title></dc:title>
      </cc:Work>
    </rdf:RDF>
  </metadata>
  <g
     transform="translate(-193.57422,-557.00126)"
     id="layer1">
    <g
       id="text5680"
       style="font-style:normal;font-variant:normal;font-weight:normal;font-stretch:normal;font-size:180px;line-height:125%;font-family:'Times New Roman';-inkscape-font-specification:'Times New Roman, ';text-align:center;letter-spacing:0px;word-spacing:0px;writing-mode:lr-tb;text-anchor:middle;fill:#000000;fill-opacity:1;stroke:none;stroke-width:1px;stroke-linecap:butt;stroke-linejoin:miter;stroke-opacity:1" />
    <g
       id="text5692"
       style="font-style:normal;font-variant:normal;font-weight:normal;font-stretch:normal;font-size:15px;line-height:125%;font-family:'Times New Roman';-inkscape-font-specification:'Times New Roman, Normal';text-align:center;letter-spacing:0px;word-spacing:0px;writing-mode:lr-tb;text-anchor:middle;fill:#000000;fill-opacity:1;stroke:none;stroke-width:1px;stroke-linecap:butt;stroke-linejoin:miter;stroke-opacity:1" />
    <g
       id="text5696"
       style="font-style:normal;font-variant:normal;font-weight:normal;font-stretch:normal;font-size:15px;line-height:125%;font-family:'Times New Roman';-inkscape-font-specification:'Times New Roman, Normal';text-align:center;letter-spacing:0px;word-spacing:0px;writing-mode:lr-tb;text-anchor:middle;fill:#000000;fill-opacity:1;stroke:none;stroke-width:1px;stroke-linecap:butt;stroke-linejoin:miter;stroke-opacity:1" />
    <g
       id="text5750"
       style="font-style:normal;font-variant:normal;font-weight:normal;font-stretch:normal;font-size:15px;line-height:125%;font-family:'Times New Roman';-inkscape-font-specification:'Times New Roman, Normal';text-align:center;letter-spacing:0px;word-spacing:0px;writing-mode:lr-tb;text-anchor:middle;fill:#000000;fill-opacity:1;stroke:none;stroke-width:1px;stroke-linecap:butt;stroke-linejoin:miter;stroke-opacity:1" />
    <path
       id="path5857"
       d="m 266.43161,668.5331 -0.35207,169.50307"
       style="fill:#000000;fill-rule:evenodd;stroke:#000000;stroke-width:0.99999994px;stroke-linecap:butt;stroke-linejoin:miter;stroke-opacity:1" />
    <path
       id="path5859"
       d="M 223.47984,573.38584 213.9741,583.253"
       style="fill:#000000;fill-rule:evenodd;stroke:#000000;stroke-width:0.99999994px;stroke-linecap:butt;stroke-linejoin:miter;stroke-opacity:1" />
    <path
       id="path5865"
       d="m 244.95572,573.38584 9.85779,9.51475"
       style="fill:#000000;fill-rule:evenodd;stroke:#000000;stroke-width:0.99999994px;stroke-linecap:butt;stroke-linejoin:miter;stroke-opacity:1" />
    <path
       id="path5869"
       d="m 278.84942,602.70315 10.94184,9.81165"
       style="fill:#000000;fill-rule:evenodd;stroke:#000000;stroke-width:0.99999994px;stroke-linecap:butt;stroke-linejoin:miter;stroke-opacity:1" />
    <path
       id="path5871"
       d="m 287.51227,636.08927 -8.97558,10.02813"
       style="fill:#000000;fill-rule:evenodd;stroke:#000000;stroke-width:0.99999994px;stroke-linecap:butt;stroke-linejoin:miter;stroke-opacity:1" />
    <path
       id="path5875"
       d="m 317.00325,638.74355 7.2173,7.04793"
       style="fill:#000000;fill-rule:evenodd;stroke:#000000;stroke-width:0.99999994px;stroke-linecap:butt;stroke-linejoin:miter;stroke-opacity:1" />
    <path
       id="path5879"
       d="m 244.77968,636.99355 11.09002,10.39574"
       style="fill:#000000;fill-rule:evenodd;stroke:#000000;stroke-width:0.99999994px;stroke-linecap:butt;stroke-linejoin:miter;stroke-opacity:1" />
    <path
       id="path5883"
       d="m 213.09394,605.1016 11.09002,10.74814"
       style="fill:#000000;fill-rule:evenodd;stroke:#000000;stroke-width:0.99999994px;stroke-linecap:butt;stroke-linejoin:miter;stroke-opacity:1" />
    <path
       id="path5891"
       d="m 345.03358,668.33567 7.21732,6.87176"
       style="fill:#000000;fill-rule:evenodd;stroke:#000000;stroke-width:0.99999994px;stroke-linecap:butt;stroke-linejoin:miter;stroke-opacity:1" />
    <path
       id="path5901"
       d="m 350.57487,700.77744 -10.38588,10.04332"
       style="fill:#000000;fill-rule:evenodd;stroke:#000000;stroke-width:0.99999994px;stroke-linecap:butt;stroke-linejoin:miter;stroke-opacity:1" />
    <path
       id="path5905"
       d="m 372.05077,700.42505 10.91397,10.74812"
       style="fill:#000000;fill-rule:evenodd;stroke:#000000;stroke-width:0.99999994px;stroke-linecap:butt;stroke-linejoin:miter;stroke-opacity:1" />
    <path
       id="path5907"
       d="m 340.3125,732.02623 7.49837,8.33425"
       style="fill:#000000;fill-rule:evenodd;stroke:#000000;stroke-width:0.99999994px;stroke-linecap:butt;stroke-linejoin:miter;stroke-opacity:1" />
    <path
       id="path5909"
       d="m 383.14969,732.87283 -8.11529,6.99347"
       style="fill:#000000;fill-rule:evenodd;stroke:#000000;stroke-width:0.99999994px;stroke-linecap:butt;stroke-linejoin:miter;stroke-opacity:1" />
    <path
       id="path5917"
       d="m 350.34277,764.59727 -10.00386,10.15957"
       style="fill:#000000;fill-rule:evenodd;stroke:#000000;stroke-width:0.99999994px;stroke-linecap:butt;stroke-linejoin:miter;stroke-opacity:1" />
    <path
       id="path5921"
       d="m 320.41304,796.52975 -10.47388,10.48382"
       style="fill:#000000;fill-rule:evenodd;stroke:#000000;stroke-width:0.99999994px;stroke-linecap:butt;stroke-linejoin:miter;stroke-opacity:1" />
    <path
       id="path5923"
       d="m 287.14684,827.99286 a 0.11949443,0.11960757 0 0 1 -0.1195,0.11961 0.11949443,0.11960757 0 0 1 -0.11949,-0.11961 0.11949443,0.11960757 0 0 1 0.11949,-0.11961 0.11949443,0.11960757 0 0 1 0.1195,0.11961 z"
       style="fill:#000000;stroke:none" />
    <path
       id="path5925"
       d="m 278.42265,841.37097 a 0.07878247,0.07890834 0 0 1 -0.0788,0.0789 0.07878247,0.07890834 0 0 1 -0.0788,-0.0789 0.07878247,0.07890834 0 0 1 0.0788,-0.0789 0.07878247,0.07890834 0 0 1 0.0788,0.0789 z"
       style="fill:#000000;stroke:none" />
    <path
       id="path5927"
       d="m 291.73146,827.81664 -10.64993,10.66004"
       style="fill:#000000;fill-rule:evenodd;stroke:#000000;stroke-width:0.99999994px;stroke-linecap:butt;stroke-linejoin:miter;stroke-opacity:1" />
    <g
       id="text5712"
       style="font-style:normal;font-variant:normal;font-weight:normal;font-stretch:normal;font-size:15px;line-height:125%;font-family:'Times New Roman';-inkscape-font-specification:'Times New Roman, Normal';text-align:center;letter-spacing:0px;word-spacing:0px;writing-mode:lr-tb;text-anchor:middle;fill:#000000;fill-opacity:1;stroke:none;stroke-width:1px;stroke-linecap:butt;stroke-linejoin:miter;stroke-opacity:1">
      <path
         id="path7570"
         style=""
         d="m 299.63831,822.22418 -2.65137,0 -3.36182,-4.64355 q -0.37353,0.0146 -0.60791,0.0146 -0.0952,0 -0.20508,0 -0.10986,-0.007 -0.22705,-0.0146 l 0,2.88574 q 0,0.9375 0.20508,1.16455 0.27832,0.32227 0.83496,0.32227 l 0.38819,0 0,0.27099 -4.25538,0 0,-0.27099 0.37354,0 q 0.62988,0 0.90088,-0.41016 0.15381,-0.22705 0.15381,-1.07666 l 0,-6.41602 q 0,-0.9375 -0.20508,-1.16455 -0.28565,-0.32226 -0.84961,-0.32226 l -0.37354,0 0,-0.271 3.61817,0 q 1.58203,0 2.3291,0.23438 0.75439,0.22705 1.27441,0.84961 0.52735,0.61523 0.52735,1.47216 0,0.91553 -0.60059,1.58936 -0.59326,0.67383 -1.8457,0.95215 l 2.05078,2.84912 q 0.70313,0.98144 1.2085,1.30371 0.50537,0.32227 1.31836,0.41016 l 0,0.27099 z m -7.05323,-5.10498 q 0.13916,0 0.2417,0.007 0.10254,0 0.16846,0 1.4209,0 2.13867,-0.61524 0.7251,-0.61523 0.7251,-1.56738 0,-0.93018 -0.58594,-1.50879 -0.57861,-0.58594 -1.53808,-0.58594 -0.42481,0 -1.14991,0.13916 l 0,4.13086 z" />
    </g>
    <g
       id="text5718"
       style="font-style:normal;font-variant:normal;font-weight:normal;font-stretch:normal;font-size:18.48385811px;line-height:125%;font-family:'Times New Roman';-inkscape-font-specification:'Times New Roman, Normal';text-align:center;letter-spacing:0px;word-spacing:0px;writing-mode:lr-tb;text-anchor:middle;fill:#000000;fill-opacity:1;stroke:none;stroke-width:1px;stroke-linecap:butt;stroke-linejoin:miter;stroke-opacity:1">
      <path
         id="path7573"
         style=""
         d="m 308.53983,811.04044 -4.43143,13.08672 -0.72203,0 4.43143,-13.08672 0.72203,0 z" />
    </g>
    <g
       id="text5722"
       style="font-style:normal;font-variant:normal;font-weight:normal;font-stretch:normal;font-size:7.5px;line-height:125%;font-family:'Times New Roman';-inkscape-font-specification:'Times New Roman, Normal';text-align:center;letter-spacing:0px;word-spacing:0px;writing-mode:lr-tb;text-anchor:middle;fill:#000000;fill-opacity:1;stroke:none;stroke-width:1px;stroke-linecap:butt;stroke-linejoin:miter;stroke-opacity:1">
      <path
         id="path7576"
         style=""
         d="m 300.03162,821.44171 q 0,-0.84961 0.25634,-1.46118 0.25635,-0.61523 0.68116,-0.91553 0.32959,-0.23803 0.68115,-0.23803 0.57129,0 1.02539,0.58227 0.56763,0.72144 0.56763,1.95557 0,0.86425 -0.24903,1.4685 -0.24902,0.60425 -0.6372,0.87891 -0.38453,0.271 -0.74341,0.271 -0.71045,0 -1.18286,-0.83863 -0.39917,-0.70678 -0.39917,-1.70288 z m 0.71777,0.0916 q 0,1.02539 0.25269,1.67359 0.20874,0.54565 0.62255,0.54565 0.19776,0 0.41016,-0.17578 0.2124,-0.17944 0.32227,-0.59692 0.16845,-0.62989 0.16845,-1.77613 0,-0.84961 -0.17578,-1.41723 -0.13183,-0.42114 -0.34057,-0.59693 -0.15015,-0.12085 -0.36255,-0.12085 -0.24903,0 -0.44312,0.22339 -0.26367,0.30396 -0.35889,0.95581 -0.0952,0.65186 -0.0952,1.2854 z" />
    </g>
    <g
       id="text5684-1"
       style="font-style:normal;font-variant:normal;font-weight:normal;font-stretch:normal;font-size:15px;line-height:125%;font-family:'Times New Roman';-inkscape-font-specification:'Times New Roman, Normal';text-align:center;letter-spacing:0px;word-spacing:0px;writing-mode:lr-tb;text-anchor:middle;fill:#000000;fill-opacity:1;stroke:none;stroke-width:1px;stroke-linecap:butt;stroke-linejoin:miter;stroke-opacity:1">
      <path
         id="path7579"
         style=""
         d="m 317.71716,811.99579 0.10987,2.3291 -0.27832,0 q -0.0806,-0.61523 -0.21973,-0.87891 -0.22705,-0.4248 -0.60791,-0.62255 -0.37354,-0.20508 -0.98877,-0.20508 l -1.39893,0 0,7.58789 q 0,0.91553 0.19776,1.14258 0.27832,0.30761 0.85693,0.30761 l 0.34424,0 0,0.271 -4.21143,0 0,-0.271 0.35157,0 q 0.62988,0 0.89355,-0.38086 0.16113,-0.23437 0.16113,-1.06933 l 0,-7.58789 -1.19384,0 q -0.6958,0 -0.98877,0.10254 -0.38086,0.13916 -0.65186,0.53466 -0.27099,0.39551 -0.32226,1.06934 l -0.27832,0 0.11718,-2.3291 8.10791,0 z" />
    </g>
    <g
       id="text5688-7"
       style="font-style:normal;font-variant:normal;font-weight:normal;font-stretch:normal;font-size:10px;line-height:125%;font-family:'Times New Roman';-inkscape-font-specification:'Times New Roman, Normal';text-align:center;letter-spacing:0px;word-spacing:0px;writing-mode:lr-tb;text-anchor:middle;fill:#000000;fill-opacity:1;stroke:none;stroke-width:1px;stroke-linecap:butt;stroke-linejoin:miter;stroke-opacity:1">
      <path
         id="path7582"
         style="font-size:10px;fill:#000000"
         d="m 318.24011,818.17346 1.61133,-0.78613 0.16113,0 0,5.59082 q 0,0.55664 0.0439,0.69336 0.0488,0.13672 0.19531,0.20996 0.14649,0.0732 0.5957,0.083 l 0,0.18066 -2.49023,0 0,-0.18066 q 0.46875,-0.01 0.60547,-0.0781 0.13672,-0.0732 0.19043,-0.19043 0.0537,-0.12207 0.0537,-0.71777 l 0,-3.57422 q 0,-0.72266 -0.0488,-0.92773 -0.0342,-0.15625 -0.12695,-0.2295 -0.0879,-0.0732 -0.21485,-0.0732 -0.18066,0 -0.50293,0.15137 l -0.0732,-0.15137 z" />
    </g>
    <g
       id="text5712-1"
       style="font-style:normal;font-variant:normal;font-weight:normal;font-stretch:normal;font-size:15px;line-height:125%;font-family:'Times New Roman';-inkscape-font-specification:'Times New Roman, Normal';text-align:center;letter-spacing:0px;word-spacing:0px;writing-mode:lr-tb;text-anchor:middle;fill:#000000;fill-opacity:1;stroke:none;stroke-width:1px;stroke-linecap:butt;stroke-linejoin:miter;stroke-opacity:1">
      <path
         id="path7585"
         style=""
         d="m 382.67896,725.32214 -2.65137,0 -3.36182,-4.64355 q -0.37353,0.0146 -0.60791,0.0146 -0.0952,0 -0.20508,0 -0.10986,-0.007 -0.22705,-0.0146 l 0,2.88574 q 0,0.9375 0.20508,1.16455 0.27832,0.32227 0.83496,0.32227 l 0.38819,0 0,0.27099 -4.25538,0 0,-0.27099 0.37354,0 q 0.62988,0 0.90088,-0.41016 0.15381,-0.22705 0.15381,-1.07666 l 0,-6.41601 q 0,-0.9375 -0.20508,-1.16456 -0.28565,-0.32226 -0.84961,-0.32226 l -0.37354,0 0,-0.271 3.61817,0 q 1.58203,0 2.3291,0.23438 0.75439,0.22705 1.27441,0.84961 0.52735,0.61523 0.52735,1.47217 0,0.91552 -0.60059,1.58935 -0.59326,0.67383 -1.8457,0.95215 l 2.05078,2.84912 q 0.70312,0.98145 1.2085,1.30371 0.50537,0.32227 1.31836,0.41016 l 0,0.27099 z m -7.05323,-5.10498 q 0.13916,0 0.2417,0.007 0.10254,0 0.16846,0 1.4209,0 2.13867,-0.61524 0.7251,-0.61523 0.7251,-1.56738 0,-0.93018 -0.58594,-1.50879 -0.57861,-0.58594 -1.53809,-0.58594 -0.4248,0 -1.1499,0.13916 l 0,4.13086 z" />
    </g>
    <g
       id="text5718-1"
       style="font-style:normal;font-variant:normal;font-weight:normal;font-stretch:normal;font-size:18.48385811px;line-height:125%;font-family:'Times New Roman';-inkscape-font-specification:'Times New Roman, Normal';text-align:center;letter-spacing:0px;word-spacing:0px;writing-mode:lr-tb;text-anchor:middle;fill:#000000;fill-opacity:1;stroke:none;stroke-width:1px;stroke-linecap:butt;stroke-linejoin:miter;stroke-opacity:1">
      <path
         id="path7588"
         style=""
         d="m 391.08048,714.13841 -4.43143,13.08671 -0.72203,0 4.43143,-13.08671 0.72203,0 z" />
    </g>
    <g
       id="text5722-5"
       style="font-style:normal;font-variant:normal;font-weight:normal;font-stretch:normal;font-size:7.5px;line-height:125%;font-family:'Times New Roman';-inkscape-font-specification:'Times New Roman, Normal';text-align:center;letter-spacing:0px;word-spacing:0px;writing-mode:lr-tb;text-anchor:middle;fill:#000000;fill-opacity:1;stroke:none;stroke-width:1px;stroke-linecap:butt;stroke-linejoin:miter;stroke-opacity:1" />
    <g
       id="text5684-1-0"
       style="font-style:normal;font-variant:normal;font-weight:normal;font-stretch:normal;font-size:15px;line-height:125%;font-family:'Times New Roman';-inkscape-font-specification:'Times New Roman, Normal';text-align:center;letter-spacing:0px;word-spacing:0px;writing-mode:lr-tb;text-anchor:middle;fill:#000000;fill-opacity:1;stroke:none;stroke-width:1px;stroke-linecap:butt;stroke-linejoin:miter;stroke-opacity:1">
      <path
         id="path7592"
         style=""
         d="m 404.25781,715.09375 0.10987,2.3291 -0.27832,0 q -0.0806,-0.61523 -0.21973,-0.8789 -0.22705,-0.42481 -0.60791,-0.62256 -0.37354,-0.20508 -0.98877,-0.20508 l -1.39893,0 0,7.58789 q 0,0.91553 0.19776,1.14258 0.27832,0.30761 0.85693,0.30761 l 0.34424,0 0,0.271 -4.21143,0 0,-0.271 0.35157,0 q 0.62988,0 0.89355,-0.38085 0.16113,-0.23438 0.16113,-1.06934 l 0,-7.58789 -1.19384,0 q -0.69581,0 -0.98877,0.10254 -0.38086,0.13916 -0.65186,0.53467 -0.271,0.3955 -0.32226,1.06933 l -0.27833,0 0.11719,-2.3291 8.10791,0 z" />
    </g>
    <g
       id="text5688-7-7"
       style="font-style:normal;font-variant:normal;font-weight:normal;font-stretch:normal;font-size:9.10583878px;line-height:125%;font-family:'Times New Roman';-inkscape-font-specification:'Times New Roman, Normal';text-align:center;letter-spacing:0px;word-spacing:0px;writing-mode:lr-tb;text-anchor:middle;fill:#000000;fill-opacity:1;stroke:none;stroke-width:1px;stroke-linecap:butt;stroke-linejoin:miter;stroke-opacity:1">
      <path
         id="path7595"
         style="font-size:10px;fill:#000000"
         d="m 404.1167,721.88177 q 0.2832,-0.66894 0.71289,-1.03027 0.43457,-0.36621 1.0791,-0.36621 0.7959,0 1.2207,0.51758 0.32227,0.38574 0.32227,0.82519 0,0.72266 -0.9082,1.49414 0.61035,0.23926 0.92285,0.6836 0.3125,0.44433 0.3125,1.04492 0,0.85938 -0.54688,1.48926 -0.71289,0.82031 -2.06543,0.82031 -0.66894,0 -0.91308,-0.16602 -0.23926,-0.16601 -0.23926,-0.35644 0,-0.1416 0.1123,-0.24902 0.11719,-0.10743 0.27833,-0.10743 0.12207,0 0.24902,0.0391 0.083,0.0244 0.37598,0.18066 0.29296,0.15137 0.40527,0.18066 0.18066,0.0537 0.38574,0.0537 0.49805,0 0.86426,-0.38575 0.37109,-0.38574 0.37109,-0.91308 0,-0.38574 -0.1709,-0.75196 -0.12695,-0.27343 -0.27832,-0.41503 -0.20996,-0.19532 -0.57617,-0.35157 -0.36621,-0.16113 -0.74707,-0.16113 l -0.15625,0 0,-0.14648 q 0.38574,-0.0488 0.77149,-0.27832 0.39062,-0.2295 0.5664,-0.55176 0.17578,-0.32227 0.17578,-0.70801 0,-0.50293 -0.31738,-0.81055 -0.3125,-0.3125 -0.78125,-0.3125 -0.75684,0 -1.26465,0.81055 l -0.16113,-0.0781 z" />
    </g>
    <g
       id="text5684"
       style="font-style:normal;font-variant:normal;font-weight:normal;font-stretch:normal;font-size:15px;line-height:125%;font-family:'Times New Roman';-inkscape-font-specification:'Times New Roman, Normal';text-align:center;letter-spacing:0px;word-spacing:0px;writing-mode:lr-tb;text-anchor:middle;fill:#000000;fill-opacity:1;stroke:none;stroke-width:1px;stroke-linecap:butt;stroke-linejoin:miter;stroke-opacity:1">
      <path
         id="path7598"
         style=""
         d="m 277.28314,842.69446 0.10987,2.3291 -0.27832,0 q -0.0806,-0.61523 -0.21973,-0.87891 -0.22705,-0.4248 -0.60791,-0.62256 -0.37354,-0.20507 -0.98877,-0.20507 l -1.39893,0 0,7.58789 q 0,0.91552 0.19776,1.14258 0.27832,0.30761 0.85693,0.30761 l 0.34424,0 0,0.271 -4.21143,0 0,-0.271 0.35157,0 q 0.62988,0 0.89355,-0.38086 0.16113,-0.23437 0.16113,-1.06933 l 0,-7.58789 -1.19384,0 q -0.69581,0 -0.98877,0.10254 -0.38086,0.13916 -0.65186,0.53466 -0.271,0.39551 -0.32227,1.06934 l -0.27832,0 0.11719,-2.3291 8.10791,0 z" />
    </g>
    <g
       id="text5688"
       style="font-style:normal;font-variant:normal;font-weight:normal;font-stretch:normal;font-size:9.10583878px;line-height:125%;font-family:'Times New Roman';-inkscape-font-specification:'Times New Roman, Normal';text-align:center;letter-spacing:0px;word-spacing:0px;writing-mode:lr-tb;text-anchor:middle;fill:#000000;fill-opacity:1;stroke:none;stroke-width:1px;stroke-linecap:butt;stroke-linejoin:miter;stroke-opacity:1">
      <path
         id="path7601"
         style="font-size:7.28467083px;fill:#000000"
         d="m 277.57651,854.46064 q 0,-0.82521 0.24899,-1.41923 0.24898,-0.59757 0.66159,-0.88924 0.32013,-0.2312 0.6616,-0.2312 0.55489,0 0.99595,0.56556 0.55133,0.70072 0.55133,1.89942 0,0.83944 -0.24187,1.42634 -0.24188,0.5869 -0.61892,0.85367 -0.37348,0.26322 -0.72206,0.26322 -0.69005,0 -1.1489,-0.81455 -0.38771,-0.68649 -0.38771,-1.65399 z m 0.69716,0.0889 q 0,0.99595 0.24543,1.62553 0.20275,0.52999 0.60469,0.52999 0.19208,0 0.39838,-0.17074 0.2063,-0.17429 0.31301,-0.57978 0.16362,-0.6118 0.16362,-1.72513 0,-0.82522 -0.17073,-1.37655 -0.12805,-0.40905 -0.3308,-0.57978 -0.14583,-0.11738 -0.35214,-0.11738 -0.24187,0 -0.43039,0.21697 -0.2561,0.29523 -0.34858,0.92837 -0.0925,0.63314 -0.0925,1.2485 z" />
    </g>
    <g
       id="text5700"
       style="font-style:normal;font-variant:normal;font-weight:normal;font-stretch:normal;font-size:15px;line-height:125%;font-family:'Times New Roman';-inkscape-font-specification:'Times New Roman, Normal';text-align:center;letter-spacing:0px;word-spacing:0px;writing-mode:lr-tb;text-anchor:middle;fill:#000000;fill-opacity:1;stroke:none;stroke-width:1px;stroke-linecap:butt;stroke-linejoin:miter;stroke-opacity:1">
      <path
         id="path7604"
         style=""
         d="m 267.49847,842.104 -3.59619,10.62012 -0.58593,0 3.59619,-10.62012 0.58593,0 z" />
    </g>
    <g
       id="text5704"
       style="font-style:normal;font-variant:normal;font-weight:normal;font-stretch:normal;font-size:23.39748001px;line-height:125%;font-family:'Times New Roman';-inkscape-font-specification:'Times New Roman, Normal';text-align:center;letter-spacing:0px;word-spacing:0px;writing-mode:lr-tb;text-anchor:middle;fill:#000000;fill-opacity:1;stroke:none;stroke-width:1px;stroke-linecap:butt;stroke-linejoin:miter;stroke-opacity:1"
       transform="scale(1.5598321,0.64109465)">
      <path
         id="path7607"
         style=""
         d="m 162.07876,1323.716 5.90649,0 0,1.7251 -5.90649,0 0,-1.7251 z" />
    </g>
    <g
       id="text5718-1-3"
       style="font-style:normal;font-variant:normal;font-weight:normal;font-stretch:normal;font-size:18.48385811px;line-height:125%;font-family:'Times New Roman';-inkscape-font-specification:'Times New Roman, Normal';text-align:center;letter-spacing:0px;word-spacing:0px;writing-mode:lr-tb;text-anchor:middle;opacity:1;fill:#000000;fill-opacity:1;stroke:none;stroke-width:1px;stroke-linecap:butt;stroke-linejoin:miter;stroke-opacity:1">
      <path
         id="path7610"
         style=""
         d="m 358.98526,745.8419 -4.43143,13.08671 -0.72203,0 4.43144,-13.08671 0.72202,0 z" />
    </g>
    <g
       id="text5684-1-0-1"
       style="font-style:normal;font-variant:normal;font-weight:normal;font-stretch:normal;font-size:15px;line-height:125%;font-family:'Times New Roman';-inkscape-font-specification:'Times New Roman, Normal';text-align:center;letter-spacing:0px;word-spacing:0px;writing-mode:lr-tb;text-anchor:middle;fill:#000000;fill-opacity:1;stroke:none;stroke-width:1px;stroke-linecap:butt;stroke-linejoin:miter;stroke-opacity:1">
      <path
         id="path7613"
         style=""
         d="m 372.1626,746.79724 0.10986,2.3291 -0.27832,0 q -0.0806,-0.61523 -0.21973,-0.8789 -0.22705,-0.42481 -0.60791,-0.62256 -0.37353,-0.20508 -0.98877,-0.20508 l -1.39892,0 0,7.58789 q 0,0.91553 0.19775,1.14258 0.27832,0.30762 0.85694,0.30762 l 0.34423,0 0,0.27099 -4.21142,0 0,-0.27099 0.35156,0 q 0.62988,0 0.89356,-0.38086 0.16113,-0.23438 0.16113,-1.06934 l 0,-7.58789 -1.19385,0 q -0.6958,0 -0.98877,0.10254 -0.38086,0.13916 -0.65185,0.53467 -0.271,0.3955 -0.32227,1.06933 l -0.27832,0 0.11719,-2.3291 8.10791,0 z" />
    </g>
    <g
       id="text5688-7-7-1"
       style="font-style:normal;font-variant:normal;font-weight:normal;font-stretch:normal;font-size:9.10583878px;line-height:125%;font-family:'Times New Roman';-inkscape-font-specification:'Times New Roman, Normal';text-align:center;letter-spacing:0px;word-spacing:0px;writing-mode:lr-tb;text-anchor:middle;fill:#000000;fill-opacity:1;stroke:none;stroke-width:1px;stroke-linecap:butt;stroke-linejoin:miter;stroke-opacity:1">
      <path
         id="path7616"
         style="font-size:10px;fill:#000000"
         d="m 376.09863,757.67218 -0.46386,1.27441 -3.90625,0 0,-0.18066 q 1.72363,-1.57227 2.42675,-2.56836 0.70313,-0.99609 0.70313,-1.82129 0,-0.62988 -0.38574,-1.03515 -0.38575,-0.40528 -0.92286,-0.40528 -0.48828,0 -0.8789,0.28809 -0.38574,0.2832 -0.57129,0.83496 l -0.18066,0 q 0.12207,-0.90332 0.625,-1.38672 0.50781,-0.4834 1.26464,-0.4834 0.80567,0 1.34278,0.51758 0.54199,0.51758 0.54199,1.2207 0,0.50293 -0.23438,1.00586 -0.36132,0.79102 -1.17187,1.67481 -1.21582,1.32812 -1.51856,1.60156 l 1.72852,0 q 0.52734,0 0.7373,-0.0391 0.21485,-0.0391 0.38575,-0.15625 0.1709,-0.12207 0.29785,-0.3418 l 0.18066,0 z" />
    </g>
    <g
       id="text6994"
       style="font-style:normal;font-variant:normal;font-weight:normal;font-stretch:normal;font-size:5px;line-height:125%;font-family:'Times New Roman';-inkscape-font-specification:'Times New Roman, Normal';text-align:center;letter-spacing:0px;word-spacing:0px;writing-mode:lr-tb;text-anchor:middle;fill:#000000;fill-opacity:1;stroke:none;stroke-width:1px;stroke-linecap:butt;stroke-linejoin:miter;stroke-opacity:1" />
    <g
       id="text6998"
       style="font-style:normal;font-variant:normal;font-weight:normal;font-stretch:normal;font-size:64.99999762%;line-height:125%;font-family:'Times New Roman';-inkscape-font-specification:'Times New Roman, Normal';text-align:center;letter-spacing:0px;word-spacing:0px;writing-mode:lr-tb;baseline-shift:sub;text-anchor:middle;fill:#000000;fill-opacity:1;stroke:none;stroke-width:1px;stroke-linecap:butt;stroke-linejoin:miter;stroke-opacity:1" />
    <g
       id="text7008"
       style="font-style:normal;font-variant:normal;font-weight:normal;font-stretch:normal;font-size:15px;line-height:125%;font-family:'Times New Roman';-inkscape-font-specification:'Times New Roman, Normal';text-align:center;letter-spacing:0px;word-spacing:0px;writing-mode:lr-tb;text-anchor:middle;fill:#000000;fill-opacity:1;stroke:none;stroke-width:1px;stroke-linecap:butt;stroke-linejoin:miter;stroke-opacity:1">
      <path
         id="path7621"
         style="font-size:7.5px"
         d="m 377.92822,754.61243 0.75074,-0.31861 0.12817,0 0,2.16797 q 0,0.21973 0.022,0.271 0.0183,0.033 0.0586,0.0513 0.0586,0.0293 0.2893,0.0293 l 0,0.11719 -1.19018,0 0,-0.11719 q 0.23437,0 0.29297,-0.0256 0.0439,-0.0183 0.0623,-0.0586 0.0183,-0.0403 0.0183,-0.26734 l 0,-1.36963 q 0,-0.26001 -0.0183,-0.34424 -0.011,-0.0586 -0.0403,-0.0806 -0.0256,-0.0256 -0.0696,-0.0256 -0.0732,0 -0.24536,0.0733 l -0.0586,-0.10254 z m 4.15283,-0.31861 -3.42407,5.26612 -0.32593,0 3.42408,-5.26612 0.32592,0 z m 0.82764,4.65454 -0.22339,0.56031 -1.80908,0 0,-0.10987 q 0.90454,-0.70312 1.20117,-1.14624 0.18311,-0.27099 0.18311,-0.52368 0,-0.22339 -0.15381,-0.37353 -0.15015,-0.15381 -0.38086,-0.15381 -0.20874,0 -0.36621,0.10986 -0.15747,0.1062 -0.23804,0.32227 l -0.16479,0 q 0.0513,-0.35523 0.28198,-0.56031 0.23437,-0.20507 0.60425,-0.20507 0.38818,0 0.62988,0.21606 0.24536,0.2124 0.24536,0.47241 0,0.2417 -0.17578,0.52002 -0.27466,0.42481 -1.08032,1.07666 l 0.68481,0 q 0.31494,0 0.41748,-0.0403 0.1062,-0.0439 0.17945,-0.1648 l 0.16479,0 z" />
    </g>
    <path
       id="path7012"
       d="m 349.07117,751.45453 a 3.1819806,3.1819806 0 0 1 -3.18198,3.18198 3.1819806,3.1819806 0 0 1 -3.18198,-3.18198 3.1819806,3.1819806 0 0 1 3.18198,-3.18198 3.1819806,3.1819806 0 0 1 3.18198,3.18198 z"
       style="opacity:1;fill:#000000;fill-opacity:1;stroke-width:10;stroke-linejoin:round;stroke-miterlimit:4;stroke-dasharray:none" />
    <g
       id="text5718-1-3-3"
       style="font-style:normal;font-variant:normal;font-weight:normal;font-stretch:normal;font-size:18.48385811px;line-height:125%;font-family:'Times New Roman';-inkscape-font-specification:'Times New Roman, Normal';text-align:center;letter-spacing:0px;word-spacing:0px;writing-mode:lr-tb;text-anchor:middle;opacity:1;fill:#000000;fill-opacity:1;stroke:none;stroke-width:1px;stroke-linecap:butt;stroke-linejoin:miter;stroke-opacity:1">
      <path
         id="path7625"
         style=""
         d="m 324.99237,714.93076 -4.43143,13.08672 -0.72202,0 4.43143,-13.08672 0.72202,0 z" />
    </g>
    <g
       id="text5684-1-0-1-8"
       style="font-style:normal;font-variant:normal;font-weight:normal;font-stretch:normal;font-size:15px;line-height:125%;font-family:'Times New Roman';-inkscape-font-specification:'Times New Roman, Normal';text-align:center;letter-spacing:0px;word-spacing:0px;writing-mode:lr-tb;text-anchor:middle;fill:#000000;fill-opacity:1;stroke:none;stroke-width:1px;stroke-linecap:butt;stroke-linejoin:miter;stroke-opacity:1">
      <path
         id="path7628"
         style=""
         d="m 344.16971,715.88611 0.10986,2.3291 -0.27832,0 q -0.0806,-0.61523 -0.21973,-0.87891 -0.22705,-0.4248 -0.60791,-0.62255 -0.37353,-0.20508 -0.98877,-0.20508 l -1.39892,0 0,7.58789 q 0,0.91552 0.19775,1.14258 0.27832,0.30761 0.85694,0.30761 l 0.34423,0 0,0.271 -4.21142,0 0,-0.271 0.35156,0 q 0.62988,0 0.89356,-0.38086 0.16113,-0.23437 0.16113,-1.06933 l 0,-7.58789 -1.19385,0 q -0.6958,0 -0.98877,0.10254 -0.38086,0.13916 -0.65185,0.53466 -0.271,0.39551 -0.32227,1.06934 l -0.27832,0 0.11719,-2.3291 8.10791,0 z" />
    </g>
    <g
       id="text5688-7-7-1-2"
       style="font-style:normal;font-variant:normal;font-weight:normal;font-stretch:normal;font-size:9.10583878px;line-height:125%;font-family:'Times New Roman';-inkscape-font-specification:'Times New Roman, Normal';text-align:center;letter-spacing:0px;word-spacing:0px;writing-mode:lr-tb;text-anchor:middle;fill:#000000;fill-opacity:1;stroke:none;stroke-width:1px;stroke-linecap:butt;stroke-linejoin:miter;stroke-opacity:1">
      <path
         id="path7631"
         style="font-size:10px;fill:#000000"
         d="m 348.10574,726.76105 -0.46386,1.27441 -3.90625,0 0,-0.18066 q 1.72363,-1.57227 2.42675,-2.56836 0.70313,-0.9961 0.70313,-1.82129 0,-0.62988 -0.38574,-1.03516 -0.38575,-0.40527 -0.92285,-0.40527 -0.48829,0 -0.87891,0.28809 -0.38574,0.2832 -0.57129,0.83496 l -0.18066,0 q 0.12207,-0.90332 0.625,-1.38672 0.50781,-0.4834 1.26464,-0.4834 0.80567,0 1.34278,0.51758 0.54199,0.51758 0.54199,1.2207 0,0.50293 -0.23438,1.00586 -0.36132,0.79102 -1.17187,1.6748 -1.21582,1.32813 -1.51855,1.60157 l 1.72851,0 q 0.52734,0 0.73731,-0.0391 0.21484,-0.0391 0.38574,-0.15625 0.1709,-0.12207 0.29785,-0.34179 l 0.18066,0 z" />
    </g>
    <g
       id="text7008-9"
       style="font-style:normal;font-variant:normal;font-weight:normal;font-stretch:normal;font-size:15px;line-height:125%;font-family:'Times New Roman';-inkscape-font-specification:'Times New Roman, Normal';text-align:center;letter-spacing:0px;word-spacing:0px;writing-mode:lr-tb;text-anchor:middle;fill:#000000;fill-opacity:1;stroke:none;stroke-width:1px;stroke-linecap:butt;stroke-linejoin:miter;stroke-opacity:1" />
    <path
       id="path7012-7"
       d="m 315.07828,720.5434 a 3.1819806,3.1819806 0 0 1 -3.18198,3.18198 3.1819806,3.1819806 0 0 1 -3.18198,-3.18198 3.1819806,3.1819806 0 0 1 3.18198,-3.18198 3.1819806,3.1819806 0 0 1 3.18198,3.18198 z"
       style="opacity:1;fill:#000000;fill-opacity:1;stroke-width:10;stroke-linejoin:round;stroke-miterlimit:4;stroke-dasharray:none" />
    <g
       id="text7068"
       style="font-style:normal;font-variant:normal;font-weight:normal;font-stretch:normal;font-size:15px;line-height:125%;font-family:'Times New Roman';-inkscape-font-specification:'Times New Roman, Normal';text-align:center;letter-spacing:0px;word-spacing:0px;writing-mode:lr-tb;text-anchor:middle;fill:#000000;fill-opacity:1;stroke:none;stroke-width:1px;stroke-linecap:butt;stroke-linejoin:miter;stroke-opacity:1">
      <path
         id="path7636"
         style=""
         d="m 334.23984,715.87372 0.22705,3.37646 -0.22705,0 q -0.4541,-1.51611 -1.29639,-2.18261 -0.84228,-0.66651 -2.02148,-0.66651 -0.98877,0 -1.78711,0.50537 -0.79834,0.49805 -1.25977,1.59668 -0.4541,1.09864 -0.4541,2.73194 0,1.34765 0.43213,2.33642 0.43213,0.98877 1.29639,1.51612 0.87158,0.52734 1.98486,0.52734 0.9668,0 1.70654,-0.41016 0.73975,-0.41748 1.62598,-1.64795 l 0.22705,0.14649 q -0.74707,1.32568 -1.74316,1.94092 -0.9961,0.61523 -2.36573,0.61523 -2.46826,0 -3.82324,-1.83105 -1.01074,-1.36231 -1.01074,-3.20801 0,-1.48682 0.6665,-2.73194 0.66651,-1.24511 1.83106,-1.92627 1.17187,-0.68847 2.55615,-0.68847 1.07666,0 2.12402,0.52734 0.30762,0.16113 0.43946,0.16113 0.19775,0 0.34423,-0.13916 0.19043,-0.19775 0.271,-0.54931 l 0.25635,0 z" />
    </g>
    <g
       id="text5718-1-3-3-3"
       style="font-style:normal;font-variant:normal;font-weight:normal;font-stretch:normal;font-size:18.48385811px;line-height:125%;font-family:'Times New Roman';-inkscape-font-specification:'Times New Roman, Normal';text-align:center;letter-spacing:0px;word-spacing:0px;writing-mode:lr-tb;text-anchor:middle;opacity:1;fill:#000000;fill-opacity:1;stroke:none;stroke-width:1px;stroke-linecap:butt;stroke-linejoin:miter;stroke-opacity:1">
      <path
         id="path7639"
         style=""
         d="m 362.63904,683.31883 -4.43143,13.08671 -0.72203,0 4.43144,-13.08671 0.72202,0 z" />
    </g>
    <path
       id="path7012-7-4"
       d="m 354.97495,689.43146 a 3.1819806,3.1819806 0 0 1 -3.18198,3.18198 3.1819806,3.1819806 0 0 1 -3.18198,-3.18198 3.1819806,3.1819806 0 0 1 3.18198,-3.18198 3.1819806,3.1819806 0 0 1 3.18198,3.18198 z"
       style="opacity:1;fill:#000000;fill-opacity:1;stroke-width:10;stroke-linejoin:round;stroke-miterlimit:4;stroke-dasharray:none" />
    <path
       id="path7012-7-4-4"
       d="m 370.93198,689.86218 a 3.1819806,3.1819806 0 0 1 -3.18198,3.18198 3.1819806,3.1819806 0 0 1 -3.18198,-3.18198 3.1819806,3.1819806 0 0 1 3.18198,-3.18198 3.1819806,3.1819806 0 0 1 3.18198,3.18198 z"
       style="opacity:1;fill:#000000;fill-opacity:1;stroke-width:10;stroke-linejoin:round;stroke-miterlimit:4;stroke-dasharray:none" />
    <g
       id="text5718-1-3-1"
       style="font-style:normal;font-variant:normal;font-weight:normal;font-stretch:normal;font-size:18.48385811px;line-height:125%;font-family:'Times New Roman';-inkscape-font-specification:'Times New Roman, Normal';text-align:center;letter-spacing:0px;word-spacing:0px;writing-mode:lr-tb;text-anchor:middle;opacity:1;fill:#000000;fill-opacity:1;stroke:none;stroke-width:1px;stroke-linecap:butt;stroke-linejoin:miter;stroke-opacity:1">
      <path
         id="path7644"
         style=""
         d="m 333.46726,650.23045 -4.43144,13.08671 -0.72202,0 4.43143,-13.08671 0.72203,0 z" />
    </g>
    <g
       id="text5684-1-0-1-0"
       style="font-style:normal;font-variant:normal;font-weight:normal;font-stretch:normal;font-size:15px;line-height:125%;font-family:'Times New Roman';-inkscape-font-specification:'Times New Roman, Normal';text-align:center;letter-spacing:0px;word-spacing:0px;writing-mode:lr-tb;text-anchor:middle;fill:#000000;fill-opacity:1;stroke:none;stroke-width:1px;stroke-linecap:butt;stroke-linejoin:miter;stroke-opacity:1">
      <path
         id="path7647"
         style=""
         d="m 346.64459,651.18579 0.10987,2.3291 -0.27832,0 q -0.0806,-0.61523 -0.21973,-0.8789 -0.22705,-0.42481 -0.60791,-0.62256 -0.37354,-0.20508 -0.98877,-0.20508 l -1.39893,0 0,7.58789 q 0,0.91553 0.19776,1.14258 0.27832,0.30762 0.85693,0.30762 l 0.34424,0 0,0.27099 -4.21143,0 0,-0.27099 0.35157,0 q 0.62988,0 0.89355,-0.38086 0.16113,-0.23438 0.16113,-1.06934 l 0,-7.58789 -1.19384,0 q -0.69581,0 -0.98877,0.10254 -0.38086,0.13916 -0.65186,0.53467 -0.271,0.3955 -0.32227,1.06933 l -0.27832,0 0.11719,-2.3291 8.10791,0 z" />
    </g>
    <g
       id="text7008-5"
       style="font-style:normal;font-variant:normal;font-weight:normal;font-stretch:normal;font-size:15px;line-height:125%;font-family:'Times New Roman';-inkscape-font-specification:'Times New Roman, Normal';text-align:center;letter-spacing:0px;word-spacing:0px;writing-mode:lr-tb;text-anchor:middle;fill:#000000;fill-opacity:1;stroke:none;stroke-width:1px;stroke-linecap:butt;stroke-linejoin:miter;stroke-opacity:1">
      <path
         id="path7650"
         style="font-size:7.5px"
         d="m 352.41022,659.00098 0.75073,-0.31861 0.12817,0 0,2.16797 q 0,0.21973 0.022,0.271 0.0183,0.033 0.0586,0.0513 0.0586,0.0293 0.28931,0.0293 l 0,0.11719 -1.19019,0 0,-0.11719 q 0.23438,0 0.29297,-0.0256 0.0439,-0.0183 0.0623,-0.0586 0.0183,-0.0403 0.0183,-0.26734 l 0,-1.36963 q 0,-0.26001 -0.0183,-0.34424 -0.011,-0.0586 -0.0403,-0.0806 -0.0256,-0.0256 -0.0696,-0.0256 -0.0732,0 -0.24536,0.0733 l -0.0586,-0.10254 z m 4.15283,-0.31861 -3.42407,5.26612 -0.32593,0 3.42407,-5.26612 0.32593,0 z m 0.82764,4.65454 -0.22339,0.56031 -1.80908,0 0,-0.10987 q 0.90454,-0.70312 1.20117,-1.14624 0.1831,-0.27099 0.1831,-0.52368 0,-0.22339 -0.15381,-0.37353 -0.15014,-0.15381 -0.38086,-0.15381 -0.20874,0 -0.36621,0.10986 -0.15747,0.1062 -0.23803,0.32227 l -0.1648,0 q 0.0513,-0.35523 0.28198,-0.56031 0.23438,-0.20507 0.60425,-0.20507 0.38819,0 0.62989,0.21606 0.24536,0.2124 0.24536,0.47241 0,0.2417 -0.17578,0.52002 -0.27466,0.42481 -1.08033,1.07666 l 0.68482,0 q 0.31494,0 0.41748,-0.0403 0.1062,-0.0439 0.17944,-0.1648 l 0.1648,0 z" />
    </g>
    <g
       id="text7068-3"
       style="font-style:normal;font-variant:normal;font-weight:normal;font-stretch:normal;font-size:15px;line-height:125%;font-family:'Times New Roman';-inkscape-font-specification:'Times New Roman, Normal';text-align:center;letter-spacing:0px;word-spacing:0px;writing-mode:lr-tb;text-anchor:middle;fill:#000000;fill-opacity:1;stroke:none;stroke-width:1px;stroke-linecap:butt;stroke-linejoin:miter;stroke-opacity:1">
      <path
         id="path7653"
         style=""
         d="m 314.51733,651.41931 0.22705,3.37647 -0.22705,0 q -0.4541,-1.51612 -1.29638,-2.18262 -0.84229,-0.6665 -2.02149,-0.6665 -0.98877,0 -1.78711,0.50537 -0.79834,0.49804 -1.25976,1.59668 -0.4541,1.09863 -0.4541,2.73193 0,1.34766 0.43213,2.33643 0.43212,0.98876 1.29638,1.51611 0.87158,0.52734 1.98487,0.52734 0.96679,0 1.70654,-0.41015 0.73974,-0.41748 1.62597,-1.64795 l 0.22706,0.14648 q -0.74707,1.32568 -1.74317,1.94092 -0.99609,0.61523 -2.36572,0.61523 -2.46826,0 -3.82324,-1.83105 -1.01075,-1.36231 -1.01075,-3.20801 0,-1.48682 0.66651,-2.73193 0.6665,-1.24512 1.83105,-1.92627 1.17188,-0.68848 2.55616,-0.68848 1.07666,0 2.12402,0.52735 0.30762,0.16113 0.43945,0.16113 0.19776,0 0.34424,-0.13916 0.19043,-0.19776 0.271,-0.54932 l 0.25634,0 z" />
    </g>
    <g
       id="text5712-1-0"
       style="font-style:normal;font-variant:normal;font-weight:normal;font-stretch:normal;font-size:15px;line-height:125%;font-family:'Times New Roman';-inkscape-font-specification:'Times New Roman, Normal';text-align:center;letter-spacing:0px;word-spacing:0px;writing-mode:lr-tb;text-anchor:middle;fill:#000000;fill-opacity:1;stroke:none;stroke-width:1px;stroke-linecap:butt;stroke-linejoin:miter;stroke-opacity:1">
      <path
         id="path7656"
         style=""
         d="m 326.69019,661.328 -2.65137,0 -3.36182,-4.64355 q -0.37353,0.0147 -0.60791,0.0147 -0.0952,0 -0.20508,0 -0.10986,-0.007 -0.22705,-0.0147 l 0,2.88574 q 0,0.9375 0.20508,1.16455 0.27832,0.32227 0.83496,0.32227 l 0.38819,0 0,0.27099 -4.25538,0 0,-0.27099 0.37354,0 q 0.62988,0 0.90088,-0.41016 0.15381,-0.22705 0.15381,-1.07666 l 0,-6.41602 q 0,-0.9375 -0.20508,-1.16455 -0.28565,-0.32226 -0.84961,-0.32226 l -0.37354,0 0,-0.271 3.61817,0 q 1.58203,0 2.3291,0.23438 0.75439,0.22705 1.27441,0.84961 0.52735,0.61523 0.52735,1.47216 0,0.91553 -0.60059,1.58936 -0.59326,0.67383 -1.8457,0.95215 l 2.05078,2.84912 q 0.70313,0.98144 1.2085,1.30371 0.50537,0.32227 1.31836,0.41016 l 0,0.27099 z m -7.05323,-5.10498 q 0.13916,0 0.2417,0.007 0.10254,0 0.16846,0 1.4209,0 2.13867,-0.61524 0.7251,-0.61523 0.7251,-1.56738 0,-0.93018 -0.58594,-1.50879 -0.57861,-0.58594 -1.53808,-0.58594 -0.42481,0 -1.14991,0.13916 l 0,4.13086 z" />
    </g>
    <g
       id="text5688-7-7-3"
       style="font-style:normal;font-variant:normal;font-weight:normal;font-stretch:normal;font-size:9.10583878px;line-height:125%;font-family:'Times New Roman';-inkscape-font-specification:'Times New Roman, Normal';text-align:center;letter-spacing:0px;word-spacing:0px;writing-mode:lr-tb;text-anchor:middle;fill:#000000;fill-opacity:1;stroke:none;stroke-width:1px;stroke-linecap:butt;stroke-linejoin:miter;stroke-opacity:1">
      <path
         id="path7659"
         style="font-size:10px;fill:#000000"
         d="m 347.47021,658.07117 q 0.28321,-0.66895 0.7129,-1.03028 0.43457,-0.36621 1.0791,-0.36621 0.7959,0 1.2207,0.51758 0.32227,0.38574 0.32227,0.8252 0,0.72265 -0.90821,1.49414 0.61035,0.23925 0.92285,0.68359 0.3125,0.44434 0.3125,1.04492 0,0.85938 -0.54687,1.48926 -0.71289,0.82031 -2.06543,0.82031 -0.66895,0 -0.91309,-0.16601 -0.23925,-0.16602 -0.23925,-0.35645 0,-0.1416 0.1123,-0.24902 0.11719,-0.10742 0.27832,-0.10742 0.12207,0 0.24902,0.0391 0.083,0.0244 0.37598,0.18066 0.29297,0.15137 0.40527,0.18067 0.18067,0.0537 0.38575,0.0537 0.49804,0 0.86425,-0.38574 0.3711,-0.38575 0.3711,-0.91309 0,-0.38574 -0.1709,-0.75195 -0.12695,-0.27344 -0.27832,-0.41504 -0.20996,-0.19531 -0.57617,-0.35156 -0.36621,-0.16114 -0.74707,-0.16114 l -0.15625,0 0,-0.14648 q 0.38574,-0.0488 0.77148,-0.27832 0.39063,-0.22949 0.56641,-0.55176 0.17578,-0.32227 0.17578,-0.70801 0,-0.50293 -0.31738,-0.81054 -0.3125,-0.3125 -0.78125,-0.3125 -0.75684,0 -1.26465,0.81054 l -0.16114,-0.0781 z" />
    </g>
    <g
       id="text5718-1-3-3-3-8"
       style="font-style:normal;font-variant:normal;font-weight:normal;font-stretch:normal;font-size:18.48385811px;line-height:125%;font-family:'Times New Roman';-inkscape-font-specification:'Times New Roman, Normal';text-align:center;letter-spacing:0px;word-spacing:0px;writing-mode:lr-tb;text-anchor:middle;opacity:1;fill:#000000;fill-opacity:1;stroke:none;stroke-width:1px;stroke-linecap:butt;stroke-linejoin:miter;stroke-opacity:1">
      <path
         id="path7662"
         style=""
         d="m 271.11756,648.81883 -4.43144,13.08671 -0.72202,0 4.43143,-13.08671 0.72203,0 z" />
    </g>
    <path
       id="path7012-7-4-4-2"
       d="m 279.4105,655.36218 a 3.1819806,3.1819806 0 0 1 -3.18198,3.18198 3.1819806,3.1819806 0 0 1 -3.18198,-3.18198 3.1819806,3.1819806 0 0 1 3.18198,-3.18198 3.1819806,3.1819806 0 0 1 3.18198,3.18198 z"
       style="opacity:1;fill:#000000;fill-opacity:1;stroke-width:10;stroke-linejoin:round;stroke-miterlimit:4;stroke-dasharray:none" />
    <g
       id="text7265"
       style="font-style:normal;font-variant:normal;font-weight:normal;font-stretch:normal;font-size:15px;line-height:125%;font-family:'Times New Roman';-inkscape-font-specification:'Times New Roman, Normal';text-align:center;letter-spacing:0px;word-spacing:0px;writing-mode:lr-tb;text-anchor:middle;fill:#000000;fill-opacity:1;stroke:none;stroke-width:1px;stroke-linecap:butt;stroke-linejoin:miter;stroke-opacity:1">
      <path
         id="path7666"
         style=""
         d="m 253.88232,650.93054 2.69532,0 6.07177,7.44873 0,-5.72754 q 0,-0.91552 -0.20507,-1.14257 -0.271,-0.30762 -0.85694,-0.30762 l -0.34424,0 0,-0.271 3.45704,0 0,0.271 -0.35157,0 q -0.62988,0 -0.89355,0.38086 -0.16113,0.23437 -0.16113,1.06933 l 0,8.37159 -0.26368,0 -6.54785,-7.99805 0,6.11572 q 0,0.91553 0.19776,1.14258 0.27832,0.30762 0.85693,0.30762 l 0.35156,0 0,0.27099 -3.45703,0 0,-0.27099 0.34424,0 q 0.63721,0 0.90088,-0.38086 0.16113,-0.23438 0.16113,-1.06934 l 0,-6.90674 q -0.43213,-0.50537 -0.65918,-0.6665 -0.21973,-0.16113 -0.65185,-0.30029 -0.21241,-0.0659 -0.64454,-0.0659 l 0,-0.271 z" />
    </g>
    <g
       id="text5718-1-8"
       style="font-style:normal;font-variant:normal;font-weight:normal;font-stretch:normal;font-size:18.48385811px;line-height:125%;font-family:'Times New Roman';-inkscape-font-specification:'Times New Roman, Normal';text-align:center;letter-spacing:0px;word-spacing:0px;writing-mode:lr-tb;text-anchor:middle;fill:#000000;fill-opacity:1;stroke:none;stroke-width:1px;stroke-linecap:butt;stroke-linejoin:miter;stroke-opacity:1">
      <path
         id="path7669"
         style=""
         d="m 297.47757,619.50126 -4.43143,13.08672 -0.72203,0 4.43144,-13.08672 0.72202,0 z" />
    </g>
    <g
       id="text5684-1-0-7"
       style="font-style:normal;font-variant:normal;font-weight:normal;font-stretch:normal;font-size:15px;line-height:125%;font-family:'Times New Roman';-inkscape-font-specification:'Times New Roman, Normal';text-align:center;letter-spacing:0px;word-spacing:0px;writing-mode:lr-tb;text-anchor:middle;fill:#000000;fill-opacity:1;stroke:none;stroke-width:1px;stroke-linecap:butt;stroke-linejoin:miter;stroke-opacity:1">
      <path
         id="path7672"
         style=""
         d="m 310.65491,620.4566 0.10986,2.32911 -0.27832,0 q -0.0806,-0.61524 -0.21973,-0.87891 -0.22705,-0.42481 -0.60791,-0.62256 -0.37353,-0.20508 -0.98877,-0.20508 l -1.39892,0 0,7.58789 q 0,0.91553 0.19775,1.14258 0.27832,0.30762 0.85694,0.30762 l 0.34423,0 0,0.27099 -4.21142,0 0,-0.27099 0.35156,0 q 0.62988,0 0.89356,-0.38086 0.16113,-0.23438 0.16113,-1.06934 l 0,-7.58789 -1.19385,0 q -0.6958,0 -0.98877,0.10254 -0.38086,0.13916 -0.65185,0.53467 -0.271,0.39551 -0.32227,1.06934 l -0.27832,0 0.11719,-2.32911 8.10791,0 z" />
    </g>
    <g
       id="text5688-7-7-6"
       style="font-style:normal;font-variant:normal;font-weight:normal;font-stretch:normal;font-size:9.10583878px;line-height:125%;font-family:'Times New Roman';-inkscape-font-specification:'Times New Roman, Normal';text-align:center;letter-spacing:0px;word-spacing:0px;writing-mode:lr-tb;text-anchor:middle;fill:#000000;fill-opacity:1;stroke:none;stroke-width:1px;stroke-linecap:butt;stroke-linejoin:miter;stroke-opacity:1">
      <path
         id="path7675"
         style="font-size:10px;fill:#000000"
         d="m 314.6593,630.16455 0,0.69336 -0.88867,0 0,1.74805 -0.80566,0 0,-1.74805 -2.80274,0 0,-0.625 3.07129,-4.38477 0.53711,0 0,4.31641 0.88867,0 z m -1.69433,0 0,-3.28613 -2.32422,3.28613 2.32422,0 z" />
    </g>
    <path
       id="path7012-7-4-4-2-3"
       d="m 289.43198,626.36218 a 3.1819806,3.1819806 0 0 1 -3.18198,3.18198 3.1819806,3.1819806 0 0 1 -3.18198,-3.18198 3.1819806,3.1819806 0 0 1 3.18198,-3.18198 3.1819806,3.1819806 0 0 1 3.18198,3.18198 z"
       style="opacity:1;fill:#000000;fill-opacity:1;stroke-width:10;stroke-linejoin:round;stroke-miterlimit:4;stroke-dasharray:none" />
    <g
       id="text5718-1-8-5"
       style="font-style:normal;font-variant:normal;font-weight:normal;font-stretch:normal;font-size:18.48385811px;line-height:125%;font-family:'Times New Roman';-inkscape-font-specification:'Times New Roman, Normal';text-align:center;letter-spacing:0px;word-spacing:0px;writing-mode:lr-tb;text-anchor:middle;fill:#000000;fill-opacity:1;stroke:none;stroke-width:1px;stroke-linecap:butt;stroke-linejoin:miter;stroke-opacity:1">
      <path
         id="path7679"
         style=""
         d="m 269.35562,586.25126 -4.43143,13.08672 -0.72202,0 4.43143,-13.08672 0.72202,0 z" />
    </g>
    <g
       id="text5684-1-0-7-7"
       style="font-style:normal;font-variant:normal;font-weight:normal;font-stretch:normal;font-size:15px;line-height:125%;font-family:'Times New Roman';-inkscape-font-specification:'Times New Roman, Normal';text-align:center;letter-spacing:0px;word-spacing:0px;writing-mode:lr-tb;text-anchor:middle;fill:#000000;fill-opacity:1;stroke:none;stroke-width:1px;stroke-linecap:butt;stroke-linejoin:miter;stroke-opacity:1">
      <path
         id="path7682"
         style=""
         d="m 282.53296,587.2066 0.10986,2.32911 -0.27832,0 q -0.0806,-0.61524 -0.21972,-0.87891 -0.22706,-0.42481 -0.60791,-0.62256 -0.37354,-0.20508 -0.98877,-0.20508 l -1.39893,0 0,7.58789 q 0,0.91553 0.19775,1.14258 0.27832,0.30762 0.85694,0.30762 l 0.34424,0 0,0.27099 -4.21143,0 0,-0.27099 0.35156,0 q 0.62989,0 0.89356,-0.38086 0.16113,-0.23438 0.16113,-1.06934 l 0,-7.58789 -1.19385,0 q -0.6958,0 -0.98877,0.10254 -0.38086,0.13916 -0.65185,0.53467 -0.271,0.39551 -0.32227,1.06934 l -0.27832,0 0.11719,-2.32911 8.10791,0 z" />
    </g>
    <g
       id="text5688-7-7-6-0"
       style="font-style:normal;font-variant:normal;font-weight:normal;font-stretch:normal;font-size:9.10583878px;line-height:125%;font-family:'Times New Roman';-inkscape-font-specification:'Times New Roman, Normal';text-align:center;letter-spacing:0px;word-spacing:0px;writing-mode:lr-tb;text-anchor:middle;fill:#000000;fill-opacity:1;stroke:none;stroke-width:1px;stroke-linecap:butt;stroke-linejoin:miter;stroke-opacity:1">
      <path
         id="path7685"
         style="font-size:10px;fill:#000000"
         d="m 286.22485,592.73486 -0.38086,0.83008 -1.99218,0 -0.43457,0.88867 q 1.29394,0.19043 2.05078,0.96192 0.64941,0.66406 0.64941,1.5625 0,0.52246 -0.21484,0.96679 -0.20996,0.44434 -0.53223,0.75684 -0.32226,0.3125 -0.71777,0.50293 -0.56153,0.26855 -1.15235,0.26855 -0.5957,0 -0.86914,-0.20019 -0.26855,-0.20508 -0.26855,-0.44922 0,-0.13672 0.1123,-0.23926 0.11231,-0.10742 0.28321,-0.10742 0.12695,0 0.21972,0.0391 0.0977,0.0391 0.32715,0.2002 0.36621,0.2539 0.74219,0.2539 0.57129,0 1.00098,-0.42968 0.43457,-0.43457 0.43457,-1.05469 0,-0.60059 -0.38575,-1.11816 -0.38574,-0.52247 -1.06445,-0.80567 -0.53223,-0.21972 -1.45019,-0.2539 l 1.26953,-2.57325 2.37304,0 z" />
    </g>
    <path
       id="path7012-7-4-4-2-3-0"
       d="m 261.31003,593.11218 a 3.1819806,3.1819806 0 0 1 -3.18198,3.18198 3.1819806,3.1819806 0 0 1 -3.18198,-3.18198 3.1819806,3.1819806 0 0 1 3.18198,-3.18198 3.1819806,3.1819806 0 0 1 3.18198,3.18198 z"
       style="opacity:1;fill:#000000;fill-opacity:1;stroke-width:10;stroke-linejoin:round;stroke-miterlimit:4;stroke-dasharray:none" />
    <path
       id="path5871-7"
       d="m 255.73779,603.84814 -8.97558,10.02813"
       style="fill:#000000;fill-rule:evenodd;stroke:#000000;stroke-width:0.99999994px;stroke-linecap:butt;stroke-linejoin:miter;stroke-opacity:1" />
    <g
       id="text5718-1-3-3-3-8-8"
       style="font-style:normal;font-variant:normal;font-weight:normal;font-stretch:normal;font-size:18.48385811px;line-height:125%;font-family:'Times New Roman';-inkscape-font-specification:'Times New Roman, Normal';text-align:center;letter-spacing:0px;word-spacing:0px;writing-mode:lr-tb;text-anchor:middle;opacity:1;fill:#000000;fill-opacity:1;stroke:none;stroke-width:1px;stroke-linecap:butt;stroke-linejoin:miter;stroke-opacity:1">
      <path
         id="path7689"
         style=""
         d="m 241.97115,619.81883 -4.43143,13.08671 -0.72203,0 4.43143,-13.08671 0.72203,0 z" />
    </g>
    <path
       id="path7012-7-4-4-2-1"
       d="m 250.26409,626.36218 a 3.1819806,3.1819806 0 0 1 -3.18198,3.18198 3.1819806,3.1819806 0 0 1 -3.18198,-3.18198 3.1819806,3.1819806 0 0 1 3.18198,-3.18198 3.1819806,3.1819806 0 0 1 3.18198,3.18198 z"
       style="opacity:1;fill:#000000;fill-opacity:1;stroke-width:10;stroke-linejoin:round;stroke-miterlimit:4;stroke-dasharray:none" />
    <g
       id="text7265-0"
       style="font-style:normal;font-variant:normal;font-weight:normal;font-stretch:normal;font-size:15px;line-height:125%;font-family:'Times New Roman';-inkscape-font-specification:'Times New Roman, Normal';text-align:center;letter-spacing:0px;word-spacing:0px;writing-mode:lr-tb;text-anchor:middle;fill:#000000;fill-opacity:1;stroke:none;stroke-width:1px;stroke-linecap:butt;stroke-linejoin:miter;stroke-opacity:1">
      <path
         id="path7693"
         style=""
         d="m 224.73592,621.93054 2.69531,0 6.07178,7.44873 0,-5.72754 q 0,-0.91552 -0.20508,-1.14257 -0.271,-0.30762 -0.85694,-0.30762 l -0.34423,0 0,-0.271 3.45703,0 0,0.271 -0.35157,0 q -0.62988,0 -0.89355,0.38086 -0.16113,0.23437 -0.16113,1.06933 l 0,8.37159 -0.26367,0 -6.54786,-7.99805 0,6.11572 q 0,0.91553 0.19776,1.14258 0.27832,0.30762 0.85693,0.30762 l 0.35156,0 0,0.27099 -3.45703,0 0,-0.27099 0.34424,0 q 0.63721,0 0.90088,-0.38086 0.16113,-0.23438 0.16113,-1.06934 l 0,-6.90674 q -0.43213,-0.50537 -0.65918,-0.6665 -0.21972,-0.16113 -0.65185,-0.30029 -0.2124,-0.0659 -0.64453,-0.0659 l 0,-0.271 z" />
    </g>
    <g
       id="text7068-3-0"
       style="font-style:normal;font-variant:normal;font-weight:normal;font-stretch:normal;font-size:15px;line-height:125%;font-family:'Times New Roman';-inkscape-font-specification:'Times New Roman, Normal';text-align:center;letter-spacing:0px;word-spacing:0px;writing-mode:lr-tb;text-anchor:middle;fill:#000000;fill-opacity:1;stroke:none;stroke-width:1px;stroke-linecap:butt;stroke-linejoin:miter;stroke-opacity:1">
      <path
         id="path7696"
         style=""
         d="m 222.76733,621.66931 0.22705,3.37647 -0.22705,0 q -0.4541,-1.51612 -1.29638,-2.18262 -0.84229,-0.6665 -2.02149,-0.6665 -0.98877,0 -1.78711,0.50537 -0.79834,0.49804 -1.25976,1.59668 -0.4541,1.09863 -0.4541,2.73193 0,1.34766 0.43213,2.33643 0.43212,0.98876 1.29638,1.51611 0.87158,0.52734 1.98487,0.52734 0.96679,0 1.70654,-0.41015 0.73974,-0.41748 1.62597,-1.64795 l 0.22706,0.14648 q -0.74707,1.32568 -1.74317,1.94092 -0.99609,0.61523 -2.36572,0.61523 -2.46826,0 -3.82324,-1.83105 -1.01075,-1.36231 -1.01075,-3.20801 0,-1.48682 0.66651,-2.73193 0.6665,-1.24512 1.83105,-1.92627 1.17188,-0.68848 2.55616,-0.68848 1.07666,0 2.12402,0.52735 0.30762,0.16113 0.43945,0.16113 0.19776,0 0.34424,-0.13916 0.19043,-0.19776 0.271,-0.54932 l 0.25634,0 z" />
    </g>
    <g
       id="text5718-1-3-3-3-8-8-8"
       style="font-style:normal;font-variant:normal;font-weight:normal;font-stretch:normal;font-size:18.48385811px;line-height:125%;font-family:'Times New Roman';-inkscape-font-specification:'Times New Roman, Normal';text-align:center;letter-spacing:0px;word-spacing:0px;writing-mode:lr-tb;text-anchor:middle;opacity:1;fill:#000000;fill-opacity:1;stroke:none;stroke-width:1px;stroke-linecap:butt;stroke-linejoin:miter;stroke-opacity:1">
      <path
         id="path7699"
         style=""
         d="m 218.97115,587.31883 -4.43143,13.08671 -0.72203,0 4.43143,-13.08671 0.72203,0 z" />
    </g>
    <path
       id="path7012-7-4-4-2-1-9"
       d="m 227.26409,593.86218 a 3.1819806,3.1819806 0 0 1 -3.18198,3.18198 3.1819806,3.1819806 0 0 1 -3.18198,-3.18198 3.1819806,3.1819806 0 0 1 3.18198,-3.18198 3.1819806,3.1819806 0 0 1 3.18198,3.18198 z"
       style="opacity:1;fill:#000000;fill-opacity:1;stroke-width:10;stroke-linejoin:round;stroke-miterlimit:4;stroke-dasharray:none" />
    <g
       id="text7265-0-6"
       style="font-style:normal;font-variant:normal;font-weight:normal;font-stretch:normal;font-size:15px;line-height:125%;font-family:'Times New Roman';-inkscape-font-specification:'Times New Roman, Normal';text-align:center;letter-spacing:0px;word-spacing:0px;writing-mode:lr-tb;text-anchor:middle;fill:#000000;fill-opacity:1;stroke:none;stroke-width:1px;stroke-linecap:butt;stroke-linejoin:miter;stroke-opacity:1">
      <path
         id="path7703"
         style=""
         d="m 201.73592,589.43054 2.69531,0 6.07178,7.44873 0,-5.72754 q 0,-0.91552 -0.20508,-1.14257 -0.271,-0.30762 -0.85694,-0.30762 l -0.34423,0 0,-0.271 3.45703,0 0,0.271 -0.35157,0 q -0.62988,0 -0.89355,0.38086 -0.16113,0.23437 -0.16113,1.06933 l 0,8.37159 -0.26367,0 -6.54786,-7.99805 0,6.11572 q 0,0.91553 0.19776,1.14258 0.27832,0.30762 0.85693,0.30762 l 0.35156,0 0,0.27099 -3.45703,0 0,-0.27099 0.34424,0 q 0.63721,0 0.90088,-0.38086 0.16113,-0.23438 0.16113,-1.06934 l 0,-6.90674 q -0.43213,-0.50537 -0.65918,-0.6665 -0.21972,-0.16113 -0.65185,-0.30029 -0.2124,-0.0659 -0.64453,-0.0659 l 0,-0.271 z" />
    </g>
    <g
       id="text7481"
       style="font-style:normal;font-variant:normal;font-weight:normal;font-stretch:normal;font-size:15px;line-height:125%;font-family:'Times New Roman';-inkscape-font-specification:'Times New Roman, Normal';text-align:center;letter-spacing:0px;word-spacing:0px;writing-mode:lr-tb;text-anchor:middle;fill:#000000;fill-opacity:1;stroke:none;stroke-width:1px;stroke-linecap:butt;stroke-linejoin:miter;stroke-opacity:1">
      <path
         id="path7706"
         style=""
         d="m 196.40137,594.4613 0,2.89307 q 0,0.9375 0.20508,1.16455 0.27832,0.32227 0.84228,0.32227 l 0.38086,0 0,0.27099 -4.25537,0 0,-0.27099 0.37353,0 q 0.62989,0 0.90088,-0.41016 0.14649,-0.22705 0.14649,-1.07666 l 0,-6.41602 q 0,-0.9375 -0.19776,-1.16455 -0.28564,-0.32226 -0.84961,-0.32226 l -0.37353,0 0,-0.271 3.64014,0 q 1.333,0 2.10205,0.27832 0.76904,0.271 1.29638,0.92285 0.52735,0.65186 0.52735,1.54541 0,1.21582 -0.80567,1.97754 -0.79834,0.76172 -2.26318,0.76172 -0.35889,0 -0.77637,-0.0513 -0.41748,-0.0513 -0.89355,-0.15381 z m 0,-0.41748 q 0.38818,0.0733 0.68847,0.10987 0.3003,0.0366 0.5127,0.0366 0.76172,0 1.31103,-0.58594 0.55664,-0.59326 0.55664,-1.53076 0,-0.64453 -0.26367,-1.19385 -0.26367,-0.55664 -0.74707,-0.82764 -0.4834,-0.27832 -1.09863,-0.27832 -0.37354,0 -0.95947,0.13916 l 0,4.13086 z" />
    </g>
    <g
       id="text5718-1-8-5-3"
       style="font-style:normal;font-variant:normal;font-weight:normal;font-stretch:normal;font-size:18.48385811px;line-height:125%;font-family:'Times New Roman';-inkscape-font-specification:'Times New Roman, Normal';text-align:center;letter-spacing:0px;word-spacing:0px;writing-mode:lr-tb;text-anchor:middle;fill:#000000;fill-opacity:1;stroke:none;stroke-width:1px;stroke-linecap:butt;stroke-linejoin:miter;stroke-opacity:1">
      <path
         id="path7709"
         style=""
         d="m 233.77016,557.00126 -4.43143,13.08672 -0.72203,0 4.43143,-13.08672 0.72203,0 z" />
    </g>
    <g
       id="text5684-1-0-7-7-6"
       style="font-style:normal;font-variant:normal;font-weight:normal;font-stretch:normal;font-size:15px;line-height:125%;font-family:'Times New Roman';-inkscape-font-specification:'Times New Roman, Normal';text-align:center;letter-spacing:0px;word-spacing:0px;writing-mode:lr-tb;text-anchor:middle;fill:#000000;fill-opacity:1;stroke:none;stroke-width:1px;stroke-linecap:butt;stroke-linejoin:miter;stroke-opacity:1">
      <path
         id="path7712"
         style=""
         d="m 246.94749,557.9566 0.10987,2.32911 -0.27832,0 q -0.0806,-0.61524 -0.21973,-0.87891 -0.22705,-0.42481 -0.60791,-0.62256 -0.37353,-0.20508 -0.98877,-0.20508 l -1.39892,0 0,7.58789 q 0,0.91553 0.19775,1.14258 0.27832,0.30762 0.85693,0.30762 l 0.34424,0 0,0.27099 -4.21142,0 0,-0.27099 0.35156,0 q 0.62988,0 0.89355,-0.38086 0.16114,-0.23438 0.16114,-1.06934 l 0,-7.58789 -1.19385,0 q -0.6958,0 -0.98877,0.10254 -0.38086,0.13916 -0.65186,0.53467 -0.27099,0.39551 -0.32226,1.06934 l -0.27832,0 0.11718,-2.32911 8.10791,0 z" />
    </g>
    <g
       id="text5688-7-7-6-0-8"
       style="font-style:normal;font-variant:normal;font-weight:normal;font-stretch:normal;font-size:9.10583878px;line-height:125%;font-family:'Times New Roman';-inkscape-font-specification:'Times New Roman, Normal';text-align:center;letter-spacing:0px;word-spacing:0px;writing-mode:lr-tb;text-anchor:middle;fill:#000000;fill-opacity:1;stroke:none;stroke-width:1px;stroke-linecap:butt;stroke-linejoin:miter;stroke-opacity:1">
      <path
         id="path7715"
         style="font-size:10px;fill:#000000"
         d="m 250.78099,563.34814 0,0.18067 q -0.64453,0.0635 -1.05469,0.25879 -0.40527,0.19043 -0.80566,0.58594 -0.39551,0.3955 -0.65918,0.88378 -0.25879,0.4834 -0.43457,1.15235 0.70312,-0.4834 1.41113,-0.4834 0.67871,0 1.17676,0.54687 0.49805,0.54688 0.49805,1.40625 0,0.83008 -0.50293,1.51368 -0.60547,0.83007 -1.60157,0.83007 -0.67871,0 -1.15234,-0.44921 -0.92773,-0.87403 -0.92773,-2.26563 0,-0.88867 0.35644,-1.68945 0.35645,-0.80078 1.01563,-1.4209 0.66406,-0.62012 1.26953,-0.83496 0.60547,-0.21485 1.12793,-0.21485 l 0.2832,0 z m -3.03711,3.41797 q -0.0879,0.65918 -0.0879,1.06446 0,0.46875 0.1709,1.0205 0.17578,0.54688 0.51758,0.86914 0.24902,0.2295 0.60547,0.2295 0.4248,0 0.75683,-0.40039 0.33692,-0.40039 0.33692,-1.14258 0,-0.83496 -0.33204,-1.44531 -0.33203,-0.61036 -0.94238,-0.61036 -0.18555,0 -0.40039,0.0781 -0.20996,0.0781 -0.625,0.33691 z" />
    </g>
    <path
       id="path7012-7-4-4-2-3-0-7"
       d="m 225.72457,563.86218 a 3.1819806,3.1819806 0 0 1 -3.18198,3.18198 3.1819806,3.1819806 0 0 1 -3.18198,-3.18198 3.1819806,3.1819806 0 0 1 3.18198,-3.18198 3.1819806,3.1819806 0 0 1 3.18198,3.18198 z"
       style="opacity:1;fill:#000000;fill-opacity:1;stroke-width:10;stroke-linejoin:round;stroke-miterlimit:4;stroke-dasharray:none" />
    <g
       id="text5712-5"
       style="font-style:normal;font-variant:normal;font-weight:normal;font-stretch:normal;font-size:15px;line-height:125%;font-family:'Times New Roman';-inkscape-font-specification:'Times New Roman, Normal';text-align:center;letter-spacing:0px;word-spacing:0px;writing-mode:lr-tb;text-anchor:middle;fill:#000000;fill-opacity:1;stroke:none;stroke-width:1px;stroke-linecap:butt;stroke-linejoin:miter;stroke-opacity:1">
      <path
         id="path7719"
         style=""
         d="m 326.25912,790.24359 -2.65136,0 -3.36182,-4.64355 q -0.37353,0.0146 -0.60791,0.0146 -0.0952,0 -0.20508,0 -0.10986,-0.007 -0.22705,-0.0146 l 0,2.88574 q 0,0.9375 0.20508,1.16455 0.27832,0.32227 0.83496,0.32227 l 0.38818,0 0,0.27099 -4.25537,0 0,-0.27099 0.37354,0 q 0.62988,0 0.90088,-0.41016 0.15381,-0.22705 0.15381,-1.07666 l 0,-6.41602 q 0,-0.9375 -0.20508,-1.16455 -0.28565,-0.32226 -0.84961,-0.32226 l -0.37354,0 0,-0.271 3.61817,0 q 1.58203,0 2.3291,0.23438 0.75439,0.22705 1.27441,0.84961 0.52735,0.61523 0.52735,1.47216 0,0.91553 -0.60059,1.58936 -0.59326,0.67383 -1.8457,0.95215 l 2.05078,2.84912 q 0.70312,0.98144 1.2085,1.30371 0.50537,0.32226 1.31835,0.41016 l 0,0.27099 z m -7.05322,-5.10498 q 0.13916,0 0.2417,0.007 0.10254,0 0.16846,0 1.4209,0 2.13867,-0.61524 0.7251,-0.61523 0.7251,-1.56738 0,-0.93018 -0.58594,-1.50879 -0.57861,-0.58594 -1.53809,-0.58594 -0.4248,0 -1.1499,0.13916 l 0,4.13086 z" />
    </g>
    <g
       id="text5718-11"
       style="font-style:normal;font-variant:normal;font-weight:normal;font-stretch:normal;font-size:18.48385811px;line-height:125%;font-family:'Times New Roman';-inkscape-font-specification:'Times New Roman, Normal';text-align:center;letter-spacing:0px;word-spacing:0px;writing-mode:lr-tb;text-anchor:middle;fill:#000000;fill-opacity:1;stroke:none;stroke-width:1px;stroke-linecap:butt;stroke-linejoin:miter;stroke-opacity:1">
      <path
         id="path7722"
         style=""
         d="m 337.16065,779.05985 -4.43144,13.08672 -0.72202,0 4.43143,-13.08672 0.72203,0 z" />
    </g>
    <g
       id="text5722-7"
       style="font-style:normal;font-variant:normal;font-weight:normal;font-stretch:normal;font-size:10px;line-height:125%;font-family:'Times New Roman';-inkscape-font-specification:'Times New Roman, Normal';text-align:center;letter-spacing:0px;word-spacing:0px;writing-mode:lr-tb;text-anchor:middle;fill:#000000;fill-opacity:1;stroke:none;stroke-width:1px;stroke-linecap:butt;stroke-linejoin:miter;stroke-opacity:1">
      <path
         id="path7725"
         style=""
         d="m 326.92856,785.94305 1.61133,-0.78613 0.16113,0 0,5.59082 q 0,0.55664 0.0439,0.69336 0.0488,0.13672 0.19532,0.20996 0.14648,0.0732 0.5957,0.083 l 0,0.18066 -2.49023,0 0,-0.18066 q 0.46875,-0.01 0.60546,-0.0781 0.13672,-0.0732 0.19043,-0.19042 0.0537,-0.12208 0.0537,-0.71778 l 0,-3.57422 q 0,-0.72265 -0.0488,-0.92773 -0.0342,-0.15625 -0.12696,-0.22949 -0.0879,-0.0733 -0.21484,-0.0733 -0.18066,0 -0.50293,0.15137 l -0.0732,-0.15137 z" />
    </g>
    <g
       id="text5684-1-2"
       style="font-style:normal;font-variant:normal;font-weight:normal;font-stretch:normal;font-size:15px;line-height:125%;font-family:sans-serif;-inkscape-font-specification:sans-serif;text-align:center;letter-spacing:0px;word-spacing:0px;writing-mode:lr-tb;text-anchor:middle;fill:#000000;fill-opacity:1;stroke:none;stroke-width:1px;stroke-linecap:butt;stroke-linejoin:miter;stroke-opacity:1">
      <path
         id="path7728"
         style=""
         d="m 346.87265,780.33014 -3.89648,0 0,9.6167 -1.4502,0 0,-9.6167 -3.89648,0 0,-1.28906 9.24316,0 0,1.28906 z" />
    </g>
    <g
       id="text5688-7-9"
       style="font-style:normal;font-variant:normal;font-weight:normal;font-stretch:normal;font-size:10px;line-height:125%;font-family:'Times New Roman';-inkscape-font-specification:'Times New Roman, Normal';text-align:center;letter-spacing:0px;word-spacing:0px;writing-mode:lr-tb;text-anchor:middle;fill:#000000;fill-opacity:1;stroke:none;stroke-width:1px;stroke-linecap:butt;stroke-linejoin:miter;stroke-opacity:1">
      <path
         id="path7731"
         style="font-size:10px;fill:#000000"
         d="m 350.27426,790.89014 -0.46387,1.27441 -3.90625,0 0,-0.18066 q 1.72364,-1.57227 2.42676,-2.56836 0.70313,-0.9961 0.70313,-1.82129 0,-0.62988 -0.38575,-1.03516 -0.38574,-0.40527 -0.92285,-0.40527 -0.48828,0 -0.8789,0.28808 -0.38575,0.28321 -0.57129,0.83497 l -0.18067,0 q 0.12207,-0.90332 0.625,-1.38672 0.50782,-0.4834 1.26465,-0.4834 0.80567,0 1.34278,0.51758 0.54199,0.51757 0.54199,1.2207 0,0.50293 -0.23438,1.00586 -0.36133,0.79101 -1.17187,1.6748 -1.21582,1.32813 -1.51856,1.60157 l 1.72852,0 q 0.52734,0 0.7373,-0.0391 0.21485,-0.0391 0.38575,-0.15625 0.17089,-0.12207 0.29785,-0.34179 l 0.18066,0 z" />
    </g>
  </g>
</svg>
