<?xml version="1.0" encoding="UTF-8" standalone="no"?>
<svg
   xmlns:dc="http://purl.org/dc/elements/1.1/"
   xmlns:cc="http://creativecommons.org/ns#"
   xmlns:rdf="http://www.w3.org/1999/02/22-rdf-syntax-ns#"
   xmlns:svg="http://www.w3.org/2000/svg"
   xmlns="http://www.w3.org/2000/svg"
   xmlns:sodipodi="http://sodipodi.sourceforge.net/DTD/sodipodi-0.dtd"
   xmlns:inkscape="http://www.inkscape.org/namespaces/inkscape"
   width="180"
   height="108"
   viewBox="1855 1382 2431 1486"
   id="svg2"
   sodipodi:version="0.32"
   inkscape:version="0.46"
   sodipodi:docname="Young_tableaux_for_541_partition.svg"
   inkscape:output_extension="org.inkscape.output.svg.inkscape"
   version="1.0">
  <metadata
     id="metadata51">
    <rdf:RDF>
      <cc:Work
         rdf:about="">
        <dc:format>image/svg+xml</dc:format>
        <dc:type
           rdf:resource="http://purl.org/dc/dcmitype/StillImage" />
      </cc:Work>
    </rdf:RDF>
  </metadata>
  <defs
     id="defs49">
    <inkscape:perspective
       sodipodi:type="inkscape:persp3d"
       inkscape:vp_x="0 : 54.000004 : 1"
       inkscape:vp_y="0 : 1000 : 0"
       inkscape:vp_z="180 : 54.000004 : 1"
       inkscape:persp3d-origin="90 : 36.000003 : 1"
       id="perspective53" />
  </defs>
  <sodipodi:namedview
     inkscape:window-height="701"
     inkscape:window-width="999"
     inkscape:pageshadow="2"
     inkscape:pageopacity="0.0"
     guidetolerance="10.0"
     gridtolerance="10.0"
     objecttolerance="10.0"
     borderopacity="1.0"
     bordercolor="#666666"
     pagecolor="#ffffff"
     id="base"
     showgrid="false"
     inkscape:zoom="3.0166667"
     inkscape:cx="91.809619"
     inkscape:cy="54.000004"
     inkscape:window-x="0"
     inkscape:window-y="22"
     inkscape:current-layer="svg2" />
  <rect
     style="opacity:1;fill:#ffffff;fill-opacity:1;fill-rule:nonzero;stroke:#ffffff;stroke-width:2.13585377;stroke-miterlimit:4;stroke-dasharray:none;stroke-opacity:1"
     id="rect3226"
     width="2474.5308"
     height="1483.8641"
     x="1833.2346"
     y="1383.0679" />
  <rect
     style="fill:#ffffff;stroke:#000000;stroke-width:32;stroke-linecap:butt;stroke-linejoin:miter"
     id="rect6"
     rx="0"
     height="472"
     width="472"
     y="1417"
     x="1889" />
  <rect
     style="fill:#ffffff;stroke:#000000;stroke-width:32;stroke-linecap:butt;stroke-linejoin:miter"
     id="rect8"
     rx="0"
     height="472"
     width="472"
     y="1417"
     x="2362" />
  <rect
     style="fill:#ffffff;stroke:#000000;stroke-width:32;stroke-linecap:butt;stroke-linejoin:miter"
     id="rect10"
     rx="0"
     height="472"
     width="472"
     y="1417"
     x="2834" />
  <rect
     style="fill:#ffffff;stroke:#000000;stroke-width:32;stroke-linecap:butt;stroke-linejoin:miter"
     id="rect12"
     rx="0"
     height="472"
     width="472"
     y="1417"
     x="3307" />
  <rect
     style="fill:#ffffff;stroke:#000000;stroke-width:32;stroke-linecap:butt;stroke-linejoin:miter"
     id="rect14"
     rx="0"
     height="472"
     width="472"
     y="1417"
     x="3779" />
  <rect
     style="fill:#ffffff;stroke:#000000;stroke-width:32;stroke-linecap:butt;stroke-linejoin:miter"
     id="rect16"
     rx="0"
     height="472"
     width="472"
     y="2362"
     x="1889" />
  <rect
     style="fill:#ffffff;stroke:#000000;stroke-width:32;stroke-linecap:butt;stroke-linejoin:miter"
     id="rect18"
     rx="0"
     height="472"
     width="472"
     y="1889"
     x="1889" />
  <rect
     style="fill:#ffffff;stroke:#000000;stroke-width:32;stroke-linecap:butt;stroke-linejoin:miter"
     id="rect20"
     rx="0"
     height="472"
     width="472"
     y="1889"
     x="2362" />
  <rect
     style="fill:#ffffff;stroke:#000000;stroke-width:32;stroke-linecap:butt;stroke-linejoin:miter"
     id="rect22"
     rx="0"
     height="472"
     width="472"
     y="1889"
     x="2834" />
  <rect
     style="fill:#ffffff;stroke:#000000;stroke-width:32;stroke-linecap:butt;stroke-linejoin:miter"
     id="rect24"
     rx="0"
     height="472"
     width="472"
     y="1889"
     x="3307" />
  <path
     style="font-size:353.5px;font-style:normal;text-anchor:start;fill:#000000;stroke:#000000;stroke-width:1.75;font-family:Helvetica"
     d="M 2079.3453,1601.0452 L 2079.3453,1577.2253 C 2101.7842,1575.0392 2117.434,1571.4144 2126.2946,1566.3511 C 2135.155,1561.1731 2141.7716,1549.033 2146.1444,1529.9309 L 2170.6547,1529.9309 L 2170.6547,1776.0691 L 2137.514,1776.0691 L 2137.514,1601.0452 L 2079.3453,1601.0452"
     id="text28" />
  <path
     style="font-size:353.5px;font-style:normal;text-anchor:start;fill:#000000;stroke:#000000;stroke-width:1.75;font-family:Helvetica"
     d="M 2512.5593,1777.0184 C 2513.71,1755.7302 2518.0827,1737.2037 2525.6775,1721.4388 C 2533.3873,1705.6741 2548.3466,1691.3477 2570.5554,1678.4596 L 2603.696,1659.3002 C 2618.5402,1650.6699 2628.9541,1643.3054 2634.938,1637.2064 C 2644.3737,1627.6556 2649.0916,1616.7238 2649.0918,1604.411 C 2649.0916,1590.0272 2644.7765,1578.6352 2636.1462,1570.2347 C 2627.5157,1561.7197 2616.0086,1557.462 2601.6248,1557.4618 C 2580.3364,1557.462 2565.6073,1565.517 2557.4373,1581.6268 C 2553.0645,1590.2574 2550.648,1602.2248 2550.1877,1617.5292 L 2518.6006,1617.5292 C 2518.9458,1596.011 2522.9158,1578.4626 2530.5105,1564.8839 C 2543.9738,1540.9493 2567.7361,1528.9818 2601.7974,1528.9816 C 2630.1049,1528.9818 2650.7602,1536.6341 2663.7634,1551.9384 C 2676.8814,1567.2431 2683.4405,1584.2737 2683.4407,1603.0302 C 2683.4405,1622.8226 2676.4787,1639.7381 2662.5552,1653.7767 C 2654.5,1661.9469 2640.0585,1671.8431 2619.2307,1683.4652 L 2595.5835,1696.5834 C 2584.3064,1702.7973 2575.4459,1708.7235 2569.002,1714.3619 C 2557.4947,1724.3732 2550.2452,1735.4776 2547.2534,1747.6752 L 2682.2324,1747.6752 L 2682.2324,1777.0184 L 2512.5593,1777.0184"
     id="text30" />
  <path
     style="font-size:353.5px;font-style:normal;text-anchor:start;fill:#000000;stroke:#000000;stroke-width:1.75;font-family:Helvetica"
     d="M 3089.9363,1689.4202 L 3089.9363,1577.3979 L 3010.7095,1689.4202 L 3089.9363,1689.4202 M 3090.4541,1776.9321 L 3090.4541,1716.5195 L 2982.0566,1716.5195 L 2982.0566,1686.1406 L 3095.2871,1529.0679 L 3121.5234,1529.0679 L 3121.5234,1689.4202 L 3157.9436,1689.4202 L 3157.9436,1716.5195 L 3121.5234,1716.5195 L 3121.5234,1776.9321 L 3090.4541,1776.9321"
     id="text32" />
  <path
     style="font-size:353.5px;font-style:normal;text-anchor:start;fill:#000000;stroke:#000000;stroke-width:1.75;font-family:Helvetica"
     d="M 3628.9585,1531.4844 L 3628.9585,1558.5837 C 3621.0184,1566.2937 3610.4318,1579.6996 3597.1987,1598.8013 C 3584.0804,1617.9033 3572.4582,1638.5011 3562.332,1660.5947 C 3552.3207,1682.1132 3544.726,1701.7329 3539.5479,1719.4539 C 3536.2107,1730.846 3531.8955,1749.1999 3526.6023,1774.5156 L 3492.2534,1774.5156 C 3500.0782,1727.3363 3517.339,1680.3871 3544.0356,1633.668 C 3559.8003,1606.2811 3576.3706,1582.6339 3593.7466,1562.7263 L 3457.0415,1562.7263 L 3457.0415,1531.4844 L 3628.9585,1531.4844"
     id="text34" />
  <path
     style="font-size:353.5px;font-style:normal;text-anchor:start;fill:#000000;stroke:#000000;stroke-width:1.75;font-family:Helvetica"
     d="M 4014.8274,1629.7843 C 4028.5208,1629.7844 4039.2225,1625.9871 4046.9324,1618.3922 C 4054.642,1610.6826 4058.4969,1601.5344 4058.4971,1590.9476 C 4058.4969,1581.7421 4054.8146,1573.2843 4047.4502,1565.5743 C 4040.0855,1557.8648 4028.866,1554.0099 4013.7917,1554.0096 C 3998.8324,1554.0099 3988.0156,1557.8648 3981.3416,1565.5743 C 3974.6673,1573.2843 3971.3303,1582.3175 3971.3303,1592.6737 C 3971.3303,1604.2961 3975.6455,1613.3868 3984.2759,1619.9457 C 3992.9062,1626.5049 4003.09,1629.7844 4014.8274,1629.7843 M 4016.7261,1752.163 C 4031.1099,1752.163 4043.0198,1748.3081 4052.4558,1740.5983 C 4062.0066,1732.7734 4066.7821,1721.1512 4066.7822,1705.7316 C 4066.7821,1689.7367 4061.8915,1677.5967 4052.1106,1669.3114 C 4042.3294,1661.0264 4029.7866,1656.8838 4014.4822,1656.8837 C 3999.6379,1656.8838 3987.4978,1661.1414 3978.062,1669.6566 C 3968.7412,1678.0569 3964.0808,1689.7367 3964.0808,1704.6959 C 3964.0808,1717.584 3968.3384,1728.7459 3976.8538,1738.1818 C 3985.4841,1747.5026 3998.7748,1752.163 4016.7261,1752.163 M 3972.5386,1641.6942 C 3963.9082,1638.0121 3957.1765,1633.6969 3952.3435,1628.7487 C 3943.2528,1619.5431 3938.7075,1607.5756 3938.7075,1592.8463 C 3938.7075,1574.4351 3945.3816,1558.6127 3958.73,1545.3793 C 3972.0782,1532.1463 3991.0075,1525.5297 4015.5178,1525.5294 C 4039.2225,1525.5297 4057.8065,1531.8011 4071.27,1544.3436 C 4084.7332,1556.7716 4091.4649,1571.3281 4091.4651,1588.0133 C 4091.4649,1603.4331 4087.5525,1615.9183 4079.7278,1625.4691 C 4075.3549,1630.8776 4068.5657,1636.1709 4059.3601,1641.349 C 4069.6013,1646.0671 4077.6563,1651.4754 4083.5251,1657.5741 C 4094.4568,1669.0814 4099.9227,1684.0407 4099.9229,1702.452 C 4099.9227,1724.2006 4092.6156,1742.6696 4078.0017,1757.859 C 4063.3875,1772.9334 4042.7321,1780.4706 4016.0356,1780.4706 C 3991.9856,1780.4706 3971.6179,1773.969 3954.9326,1760.9659 C 3938.3623,1747.8478 3930.0771,1728.861 3930.0771,1704.0055 C 3930.0771,1689.3915 3933.6444,1676.7912 3940.7788,1666.2045 C 3947.9132,1655.5029 3958.4998,1647.3328 3972.5386,1641.6942"
     id="text36" />
  <path
     style="font-size:353.5px;font-style:normal;text-anchor:start;fill:#000000;stroke:#000000;stroke-width:1.75;font-family:Helvetica"
     d="M 2121.9794,2252.1252 C 2092.7511,2252.1252 2071.5204,2244.1278 2058.2872,2228.1328 C 2045.1691,2212.0228 2038.61,2192.4607 2038.61,2169.4463 L 2071.0602,2169.4463 C 2072.441,2185.4413 2075.4329,2197.0635 2080.0358,2204.313 C 2088.0907,2217.3161 2102.6473,2223.8176 2123.7054,2223.8176 C 2140.0455,2223.8176 2153.1637,2219.4449 2163.0599,2210.6995 C 2172.956,2201.9541 2177.904,2190.6771 2177.9042,2176.8684 C 2177.904,2159.8379 2172.6683,2147.928 2162.1969,2141.1387 C 2151.8403,2134.3496 2137.3989,2130.9549 2118.8724,2130.9548 C 2116.8011,2130.9549 2114.6722,2131.0125 2112.486,2131.1274 C 2110.4146,2131.1276 2108.2858,2131.1851 2106.0995,2131.3 L 2106.0995,2103.8555 C 2109.3214,2104.2008 2112.0256,2104.431 2114.212,2104.5459 C 2116.3983,2104.6611 2118.7573,2104.7186 2121.2889,2104.7185 C 2132.9111,2104.7186 2142.462,2102.8775 2149.9418,2099.1951 C 2163.0598,2092.7512 2169.6189,2081.2441 2169.619,2064.6736 C 2169.6189,2052.3611 2165.2462,2042.8677 2156.5009,2036.1934 C 2147.7553,2029.5194 2137.5715,2026.1823 2125.9493,2026.1821 C 2105.2364,2026.1823 2090.91,2033.0866 2082.9701,2046.895 C 2078.5973,2054.4899 2076.1233,2065.3067 2075.548,2079.3452 L 2044.8239,2079.3452 C 2044.8238,2060.9339 2048.5061,2045.2842 2055.8707,2032.396 C 2068.5286,2009.3819 2090.7949,1997.8748 2122.6698,1997.8745 C 2147.8704,1997.8748 2167.375,2003.5133 2181.1837,2014.79 C 2194.9921,2025.9522 2201.8964,2042.1773 2201.8966,2063.4653 C 2201.8964,2078.655 2197.8114,2090.9676 2189.6415,2100.4033 C 2184.5782,2106.2721 2178.0191,2110.875 2169.9642,2114.2119 C 2182.9672,2117.7793 2193.0935,2124.6836 2200.3431,2134.9248 C 2207.7075,2145.0512 2211.3898,2157.4789 2211.39,2172.208 C 2211.3898,2195.7977 2203.6225,2215.0147 2188.088,2229.8589 C 2172.5532,2244.7031 2150.517,2252.1252 2121.9794,2252.1252"
     id="text38" />
  <path
     style="font-size:353.5px;font-style:normal;text-anchor:start;fill:#000000;stroke:#000000;stroke-width:1.75;font-family:Helvetica"
     d="M 2545.1821,2180.407 C 2547.2534,2198.1281 2555.481,2210.3832 2569.865,2217.1724 C 2577.2295,2220.6245 2585.7448,2222.3506 2595.4109,2222.3506 C 2613.8222,2222.3506 2627.4582,2216.482 2636.3188,2204.7446 C 2645.1792,2193.0074 2649.6095,2180.0043 2649.6096,2165.7354 C 2649.6095,2148.4747 2644.3162,2135.1264 2633.7297,2125.6904 C 2623.2581,2116.2547 2610.6578,2111.5368 2595.9287,2111.5366 C 2585.227,2111.5368 2576.0212,2113.608 2568.3115,2117.7505 C 2560.7167,2121.8932 2554.2152,2127.6468 2548.8069,2135.0112 L 2521.8801,2133.4578 L 2540.6943,2000.3774 L 2669.1143,2000.3774 L 2669.1143,2030.4111 L 2563.9963,2030.4111 L 2553.4673,2099.1089 C 2559.2208,2094.7363 2564.6867,2091.4568 2569.865,2089.2703 C 2579.0706,2085.4731 2589.7148,2083.5744 2601.7974,2083.5742 C 2624.4663,2083.5744 2643.6833,2090.8814 2659.4482,2105.4954 C 2675.2129,2120.1096 2683.0953,2138.6361 2683.0955,2161.075 C 2683.0953,2184.4345 2675.8458,2205.0323 2661.3469,2222.8684 C 2646.9628,2240.7045 2623.9485,2249.6226 2592.304,2249.6226 C 2572.1664,2249.6226 2554.3303,2243.984 2538.7957,2232.707 C 2523.376,2221.315 2514.7457,2203.8816 2512.9045,2180.407 L 2545.1821,2180.407"
     id="text40" />
  <path
     style="font-size:353.5px;font-style:normal;text-anchor:start;fill:#000000;stroke:#000000;stroke-width:1.75;font-family:Helvetica"
     d="M 3075.3508,1997.7021 C 3102.9679,1997.7024 3122.1848,2004.8944 3133.0017,2019.2781 C 3143.9333,2033.5472 3149.3992,2048.2763 3149.3994,2063.4656 L 3118.6753,2063.4656 C 3116.834,2053.6847 3113.8997,2046.0324 3109.8723,2040.5088 C 3102.3925,2030.1526 3091.058,2024.9743 3075.8687,2024.9741 C 3058.4928,2024.9743 3044.6842,2033.0293 3034.4429,2049.1392 C 3024.2014,2065.1343 3018.5054,2088.0911 3017.3547,2118.0095 C 3024.4891,2107.5381 3033.4647,2099.7133 3044.2815,2094.5349 C 3054.1776,2089.9322 3065.2244,2087.6308 3077.4221,2087.6306 C 3098.1349,2087.6308 3116.2011,2094.2474 3131.6208,2107.4805 C 3147.0403,2120.7138 3154.7501,2140.4486 3154.7502,2166.6848 C 3154.7501,2189.1238 3147.443,2209.0312 3132.8291,2226.407 C 3118.2149,2243.6677 3097.3869,2252.2981 3070.3452,2252.2981 C 3047.2157,2252.2981 3027.2508,2243.5527 3010.4504,2226.0618 C 2993.65,2208.4558 2985.2497,2178.8825 2985.2498,2137.3416 C 2985.2497,2106.6176 2988.9896,2080.5539 2996.4692,2059.1504 C 3010.8532,2018.1851 3037.147,1997.7024 3075.3508,1997.7021 M 3073.1069,2224.6809 C 3089.447,2224.6809 3101.6446,2219.215 3109.6997,2208.2832 C 3117.8696,2197.2364 3121.9547,2184.2333 3121.9548,2169.2739 C 3121.9547,2156.6161 3118.3299,2144.5912 3111.0806,2133.199 C 3103.8309,2121.6919 3090.6552,2115.9384 3071.5535,2115.9382 C 3058.2051,2115.9384 3046.4678,2120.3686 3036.3416,2129.229 C 3026.3303,2138.0896 3021.3247,2151.4379 3021.3247,2169.2739 C 3021.3247,2184.9237 3025.87,2198.0994 3034.9607,2208.801 C 3044.1664,2219.3876 3056.8818,2224.6809 3073.1069,2224.6809"
     id="text42" />
  <path
     style="font-size:353.5px;font-style:normal;text-anchor:start;fill:#000000;stroke:#000000;stroke-width:1.75;font-family:Helvetica"
     d="M 3493.8069,2185.5852 C 3494.7274,2202.7309 3501.344,2214.5833 3513.6567,2221.1423 C 3519.9856,2224.5945 3527.12,2226.3206 3535.0601,2226.3206 C 3549.9042,2226.3206 3562.5621,2220.1643 3573.0337,2207.8516 C 3583.5051,2195.4239 3590.9272,2170.2808 3595.3,2132.4221 C 3588.3956,2143.354 3579.8228,2151.0638 3569.5815,2155.5515 C 3559.4551,2159.9243 3548.5233,2162.1107 3536.7861,2162.1106 C 3512.9662,2162.1107 3494.0945,2154.6886 3480.1709,2139.8442 C 3466.3623,2125.0001 3459.458,2105.8983 3459.458,2082.5386 C 3459.458,2060.0998 3466.3047,2040.365 3479.9983,2023.3342 C 3493.6918,2006.3039 3513.8868,1997.7886 3540.5835,1997.7883 C 3576.6008,1997.7886 3601.4562,2014.0137 3615.1499,2046.4636 C 3622.7445,2064.2999 3626.5418,2086.6238 3626.542,2113.4353 C 3626.5418,2143.6992 3621.9965,2170.5109 3612.906,2193.8704 C 3597.8315,2232.7646 3572.2856,2252.2117 3536.2683,2252.2117 C 3512.1032,2252.2117 3493.7493,2245.8827 3481.2065,2233.2249 C 3468.6637,2220.567 3462.3923,2204.6871 3462.3923,2185.5852 L 3493.8069,2185.5852 M 3540.9287,2134.8386 C 3553.2413,2134.8387 3564.4607,2130.8112 3574.5872,2122.7561 C 3584.8284,2114.5861 3589.9491,2100.3748 3589.9492,2080.1221 C 3589.9491,2061.9409 3585.3462,2048.42 3576.1406,2039.5593 C 3567.0498,2030.584 3555.4276,2026.0962 3541.2739,2026.0959 C 3526.0844,2026.0962 3514.0019,2031.2168 3505.0264,2041.458 C 3496.1658,2051.5845 3491.7356,2065.1629 3491.7356,2082.1934 C 3491.7356,2098.3035 3495.648,2111.134 3503.4729,2120.6848 C 3511.2977,2130.1208 3523.783,2134.8387 3540.9287,2134.8386"
     id="text44" />
  <path
     style="font-size:353.5px;font-style:normal;text-anchor:start;fill:#000000;stroke:#000000;stroke-width:1.75;font-family:Helvetica"
     d="M 1952.7378,2543.1973 L 1952.7378,2519.3774 C 1975.1767,2517.1913 1990.8264,2513.5665 1999.687,2508.5032 C 2008.5474,2503.3252 2015.164,2491.1851 2019.5369,2472.083 L 2044.0471,2472.083 L 2044.0471,2718.2212 L 2010.9065,2718.2212 L 2010.9065,2543.1973 L 1952.7378,2543.1973 M 2211.3037,2471.0474 C 2243.2935,2471.0476 2266.4229,2484.2233 2280.6919,2510.5745 C 2291.7386,2530.9423 2297.262,2558.8472 2297.2622,2594.2891 C 2297.262,2627.8901 2292.2564,2655.6798 2282.2454,2677.6584 C 2267.7462,2709.1881 2244.0415,2724.9529 2211.1311,2724.9529 C 2181.4426,2724.9529 2159.3488,2712.0649 2144.8499,2686.2888 C 2132.7673,2664.7705 2126.7261,2635.8875 2126.7261,2599.6399 C 2126.7261,2571.5626 2130.3508,2547.4551 2137.6003,2527.3174 C 2151.1788,2489.8043 2175.7465,2471.0476 2211.3037,2471.0474 M 2210.9585,2696.6453 C 2227.0684,2696.6453 2239.8989,2689.5109 2249.45,2675.2419 C 2259.0008,2660.9731 2263.7762,2634.3916 2263.7764,2595.4973 C 2263.7762,2567.42 2260.3241,2544.3482 2253.4199,2526.2817 C 2246.5155,2508.1006 2233.1097,2499.01 2213.2024,2499.0098 C 2194.9059,2499.01 2181.5001,2507.6403 2172.9849,2524.9009 C 2164.5846,2542.0467 2160.3845,2567.3625 2160.3845,2600.8481 C 2160.3845,2626.0489 2163.0887,2646.3015 2168.4971,2661.606 C 2176.7822,2684.9655 2190.936,2696.6453 2210.9585,2696.6453"
     id="text46" />
</svg>
